<?xml version="1.0" encoding="UTF-8" standalone="no"?><!DOCTYPE svg PUBLIC "-//W3C//DTD SVG 1.1//EN" "http://www.w3.org/Graphics/SVG/1.1/DTD/svg11.dtd"><svg width="100%" height="100%" viewBox="0 0 1739 1378" version="1.1" xmlns="http://www.w3.org/2000/svg" xmlns:xlink="http://www.w3.org/1999/xlink" xml:space="preserve" style="fill-rule:evenodd;clip-rule:evenodd;stroke-linejoin:round;stroke-miterlimit:1.41421;"><path d="M1357.85,1025.07l122.309,-47.56c76.644,-29.803 127.326,-105.063 127.326,-189.073c0,-92.108 0,-211.976 0,-302.197c0,-78.598 -47.417,-149.01 -119.123,-176.892c-149.542,-58.149 -402.262,-156.419 -532.948,-207.236c-54.03,-21.009 -113.697,-21.009 -167.727,0c-127.687,49.651 -371.874,144.603 -522.495,203.171c-77.998,30.329 -129.575,106.92 -129.575,192.415c0,87.376 0,199.017 0,286.685c0,86.45 52.154,163.897 131.023,194.565c150.563,58.546 393.216,152.901 520.613,202.439c54.309,21.118 114.286,21.118 168.595,0l168.771,-65.626l158.435,150.983l-0.012,0.013c0,0 101.796,13.606 156.749,20.951c7.89,1.054 15.79,-1.864 21.208,-7.836c5.418,-5.971 7.685,-14.257 6.086,-22.245c-11.019,-55.052 -31.333,-156.539 -31.754,-158.646c-0.005,-0.021 0.001,-0.043 0.015,-0.059c0.001,0 0.001,0 0.001,0l-77.497,-73.852Z" style="fill:#474747;"/><path d="M872.455,3.616l0.905,0.003l0.905,0.007l0.905,0.009l0.905,0.012l0.905,0.014l0.905,0.017l0.905,0.02l0.905,0.022l0.905,0.025l0.904,0.027l0.905,0.03l0.905,0.033l0.904,0.035l0.905,0.038l0.904,0.041l0.905,0.043l0.904,0.046l0.904,0.048l0.904,0.051l0.904,0.053l0.904,0.057l0.903,0.058l0.904,0.062l0.904,0.064l0.903,0.066l0.903,0.07l0.902,0.072l0.903,0.074l0.903,0.077l0.903,0.08l0.902,0.082l0.902,0.085l0.902,0.088l0.902,0.09l0.901,0.092l0.901,0.096l0.902,0.098l0.901,0.1l0.9,0.104l0.901,0.105l0.9,0.109l0.9,0.111l0.899,0.114l0.9,0.116l0.899,0.119l0.899,0.121l0.898,0.124l0.899,0.127l0.898,0.129l0.899,0.132l0.897,0.135l0.897,0.137l0.897,0.14l0.896,0.142l0.897,0.145l0.896,0.148l0.896,0.15l0.895,0.153l0.895,0.155l0.895,0.158l0.894,0.161l0.894,0.163l0.893,0.166l0.894,0.168l0.893,0.171l0.893,0.174l0.891,0.176l0.892,0.179l0.892,0.182l0.891,0.184l0.89,0.187l0.89,0.189l0.89,0.192l0.89,0.195l0.887,0.197l0.889,0.199l0.889,0.203l0.886,0.205l0.888,0.207l0.887,0.211l0.886,0.212l0.885,0.216l0.885,0.218l0.885,0.22l0.885,0.224l0.884,0.226l0.881,0.227l0.883,0.232l0.884,0.234l0.882,0.236l0.881,0.239l0.879,0.241l0.879,0.244l0.882,0.247l0.879,0.249l0.878,0.252l0.878,0.254l0.877,0.257l0.877,0.26l0.876,0.262l0.875,0.265l0.876,0.268l0.874,0.27l0.874,0.272l0.873,0.275l0.872,0.278l0.872,0.281l0.872,0.283l0.871,0.285l0.868,0.288l0.871,0.291l0.87,0.294l0.868,0.296l0.866,0.298l0.866,0.301l0.866,0.304l0.867,0.307l0.865,0.309l0.863,0.311l0.864,0.315l0.862,0.316l0.863,0.32l0.86,0.322l0.861,0.324l0.86,0.327l0.859,0.33l0.803,0.311l533.05,207.275l0.561,0.219l0.61,0.24l0.608,0.241l0.608,0.242l0.605,0.243l0.604,0.244l0.606,0.247l0.603,0.247l0.605,0.25l0.601,0.251l0.604,0.253l0.599,0.252l0.598,0.254l0.602,0.257l0.6,0.259l0.594,0.257l0.595,0.26l0.6,0.263l0.592,0.262l0.595,0.264l0.595,0.267l0.591,0.266l0.591,0.269l0.592,0.27l0.59,0.271l0.589,0.273l0.588,0.274l0.589,0.276l0.586,0.276l0.586,0.278l0.584,0.279l0.585,0.281l0.584,0.283l0.578,0.281l0.585,0.287l0.582,0.286l0.578,0.287l0.577,0.288l0.582,0.292l0.577,0.291l0.572,0.291l0.576,0.294l0.578,0.297l0.573,0.297l0.571,0.297l0.573,0.299l0.571,0.301l0.572,0.303l0.569,0.303l0.566,0.304l0.57,0.306l0.565,0.307l0.566,0.308l0.564,0.31l0.562,0.309l0.565,0.314l0.564,0.314l0.559,0.314l0.56,0.316l0.561,0.318l0.56,0.32l0.556,0.319l0.558,0.321l0.558,0.324l0.549,0.321l0.555,0.326l0.553,0.326l0.553,0.328l0.554,0.33l0.548,0.329l0.549,0.331l0.545,0.33l0.549,0.335l0.551,0.338l0.542,0.334l0.542,0.336l0.547,0.34l0.543,0.341l0.539,0.339l0.546,0.345l0.54,0.344l0.533,0.341l0.539,0.347l0.538,0.347l0.538,0.35l0.536,0.35l0.529,0.348l0.536,0.354l0.533,0.353l0.53,0.354l0.534,0.358l0.529,0.357l0.522,0.354l0.53,0.36l0.53,0.363l0.521,0.359l0.527,0.365l0.521,0.361l0.521,0.365l0.524,0.368l0.523,0.368l0.518,0.368l0.518,0.369l0.519,0.373l0.513,0.369l0.518,0.375l0.518,0.377l0.51,0.373l0.51,0.374l0.514,0.38l0.512,0.38l0.51,0.381l0.506,0.379l0.509,0.384l0.507,0.383l0.503,0.383l0.506,0.387l0.504,0.387l0.503,0.389l0.503,0.389l0.496,0.388l0.501,0.392l0.502,0.395l0.497,0.394l0.49,0.39l0.496,0.395l0.505,0.406l0.489,0.395l0.489,0.396l0.487,0.396l0.495,0.405l0.492,0.406l0.483,0.399l0.491,0.407l0.489,0.409l0.481,0.403l0.478,0.403l0.486,0.411l0.486,0.413l0.484,0.414l0.483,0.415l0.472,0.407l0.473,0.41l0.48,0.418l0.477,0.418l0.478,0.42l0.475,0.42l0.466,0.414l0.473,0.422l0.473,0.424l0.464,0.418l0.469,0.424l0.469,0.426l0.469,0.429l0.467,0.428l0.464,0.428l0.456,0.423l0.464,0.432l0.461,0.431l0.461,0.433l0.46,0.435l0.45,0.426l0.466,0.444l0.457,0.437l0.446,0.43l0.453,0.437l0.462,0.449l0.45,0.439l0.442,0.434l0.45,0.443l0.447,0.442l0.447,0.444l0.446,0.446l0.454,0.455l0.442,0.446l0.433,0.438l0.441,0.449l0.448,0.458l0.438,0.45l0.43,0.443l0.444,0.46l0.434,0.452l0.434,0.455l0.442,0.464l0.43,0.455l0.422,0.447l0.429,0.457l0.436,0.467l0.435,0.469l0.425,0.46l0.415,0.45l0.432,0.472l0.422,0.462l0.419,0.462l0.429,0.474l0.418,0.465l0.416,0.465l0.416,0.466l0.423,0.478l0.412,0.466l0.412,0.469l0.42,0.48l0.409,0.471l0.417,0.481l0.406,0.471l0.406,0.472l0.413,0.484l0.403,0.474l0.411,0.486l0.4,0.475l0.4,0.477l0.407,0.488l0.406,0.488l0.396,0.479l0.394,0.48l0.402,0.49l0.392,0.482l0.4,0.492l0.398,0.494l0.388,0.482l0.387,0.485l0.395,0.495l0.392,0.496l0.384,0.487l0.391,0.498l0.39,0.5l0.379,0.487l0.387,0.5l0.385,0.502l0.376,0.49l0.383,0.502l0.374,0.493l0.38,0.504l0.38,0.505l0.37,0.494l0.385,0.517l0.366,0.495l0.375,0.508l0.372,0.508l0.365,0.499l0.37,0.509l0.368,0.51l0.369,0.512l0.367,0.512l0.365,0.512l0.355,0.502l0.363,0.514l0.362,0.515l0.36,0.516l0.359,0.516l0.349,0.504l0.357,0.518l0.363,0.53l0.354,0.519l0.345,0.509l0.351,0.519l0.357,0.533l0.341,0.51l0.348,0.523l0.354,0.534l0.336,0.512l0.344,0.524l0.35,0.536l0.341,0.526l0.332,0.515l0.338,0.526l0.345,0.541l0.336,0.528l0.334,0.528l0.334,0.531l0.331,0.529l0.33,0.529l0.33,0.533l0.335,0.544l0.327,0.533l0.319,0.522l0.33,0.545l0.331,0.547l0.314,0.523l0.327,0.547l0.32,0.538l0.318,0.538l0.322,0.547l0.315,0.539l0.314,0.54l0.312,0.539l0.318,0.552l0.309,0.54l0.31,0.542l0.307,0.542l0.313,0.555l0.311,0.556l0.304,0.543l0.301,0.545l0.3,0.543l0.307,0.559l0.298,0.546l0.303,0.558l0.303,0.561l0.287,0.535l0.299,0.559l0.299,0.563l0.29,0.55l0.295,0.561l0.287,0.55l0.286,0.55l0.292,0.567l0.291,0.565l0.288,0.565l0.28,0.553l0.28,0.553l0.284,0.567l0.284,0.568l0.276,0.556l0.273,0.553l0.286,0.584l0.279,0.572l0.263,0.542l0.275,0.571l0.281,0.586l0.266,0.558l0.264,0.559l0.27,0.573l0.268,0.573l0.268,0.575l0.259,0.561l0.265,0.576l0.263,0.576l0.262,0.576l0.259,0.576l0.253,0.563l0.258,0.579l0.257,0.579l0.254,0.577l0.253,0.58l0.253,0.581l0.243,0.564l0.25,0.581l0.255,0.598l0.24,0.566l0.245,0.581l0.244,0.583l0.242,0.584l0.241,0.583l0.234,0.57l0.244,0.599l0.237,0.585l0.236,0.586l0.234,0.586l0.227,0.571l0.237,0.601l0.23,0.587l0.229,0.589l0.227,0.589l0.226,0.587l0.224,0.589l0.224,0.59l0.227,0.604l0.214,0.575l0.22,0.591l0.223,0.606l0.216,0.591l0.215,0.593l0.213,0.592l0.217,0.608l0.211,0.593l0.209,0.594l0.208,0.594l0.206,0.594l0.21,0.61l0.204,0.595l0.202,0.596l0.201,0.595l0.205,0.612l0.197,0.597l0.197,0.596l0.2,0.614l0.194,0.597l0.192,0.598l0.191,0.599l0.195,0.614l0.193,0.615l0.187,0.6l0.185,0.6l0.184,0.599l0.187,0.617l0.186,0.617l0.18,0.601l0.178,0.602l0.182,0.618l0.175,0.601l0.174,0.603l0.182,0.635l0.171,0.604l0.17,0.604l0.173,0.619l0.171,0.62l0.165,0.605l0.165,0.605l0.167,0.62l0.165,0.622l0.164,0.622l0.159,0.606l0.157,0.607l0.16,0.623l0.158,0.622l0.157,0.624l0.151,0.608l0.154,0.624l0.153,0.624l0.147,0.609l0.149,0.625l0.149,0.625l0.146,0.626l0.142,0.61l0.143,0.625l0.142,0.626l0.138,0.612l0.139,0.627l0.138,0.626l0.136,0.628l0.135,0.627l0.134,0.629l0.132,0.628l0.127,0.612l0.129,0.629l0.127,0.629l0.127,0.63l0.124,0.63l0.123,0.629l0.122,0.63l0.12,0.631l0.119,0.63l0.117,0.631l0.116,0.631l0.111,0.615l0.116,0.648l0.112,0.632l0.107,0.616l0.111,0.648l0.107,0.632l0.105,0.633l0.104,0.633l0.103,0.633l0.101,0.633l0.1,0.634l0.098,0.633l0.096,0.634l0.098,0.651l0.093,0.635l0.093,0.633l0.09,0.635l0.09,0.636l0.089,0.651l0.087,0.635l0.084,0.636l0.084,0.636l0.081,0.635l0.083,0.652l0.078,0.637l0.078,0.636l0.076,0.636l0.074,0.637l0.075,0.653l0.073,0.654l0.07,0.637l0.068,0.637l0.067,0.638l0.065,0.637l0.066,0.654l0.064,0.655l0.061,0.638l0.059,0.638l0.059,0.655l0.057,0.638l0.055,0.639l0.055,0.655l0.053,0.655l0.05,0.639l0.049,0.639l0.049,0.656l0.047,0.655l0.044,0.64l0.043,0.64l0.043,0.655l0.041,0.657l0.038,0.639l0.038,0.657l0.036,0.656l0.034,0.64l0.032,0.641l0.032,0.656l0.03,0.657l0.028,0.641l0.027,0.657l0.026,0.657l0.024,0.657l0.022,0.641l0.021,0.657l0.019,0.657l0.017,0.641l0.017,0.658l0.014,0.657l0.013,0.641l0.012,0.658l0.01,0.658l0.009,0.657l0.006,0.658l0.006,0.642l0.004,0.657l0.002,0.658l0.001,0.609l0,302.308l-0.001,0.63l-0.002,0.677l-0.005,0.693l-0.005,0.692l-0.008,0.676l-0.008,0.677l-0.011,0.708l-0.012,0.676l-0.013,0.676l-0.016,0.692l-0.017,0.692l-0.019,0.691l-0.02,0.677l-0.021,0.676l-0.023,0.676l-0.026,0.691l-0.026,0.692l-0.028,0.675l-0.03,0.676l-0.031,0.691l-0.034,0.691l-0.034,0.675l-0.036,0.675l-0.037,0.675l-0.04,0.691l-0.041,0.69l-0.043,0.675l-0.043,0.675l-0.046,0.674l-0.047,0.69l-0.049,0.674l-0.05,0.674l-0.053,0.69l-0.053,0.673l-0.055,0.674l-0.056,0.674l-0.058,0.674l-0.061,0.687l-0.061,0.674l-0.062,0.674l-0.066,0.687l-0.064,0.658l-0.068,0.672l-0.07,0.688l-0.071,0.672l-0.072,0.672l-0.073,0.672l-0.077,0.687l-0.077,0.673l-0.077,0.654l-0.08,0.671l-0.083,0.688l-0.083,0.67l-0.083,0.655l-0.086,0.671l-0.09,0.685l-0.089,0.67l-0.089,0.655l-0.094,0.684l-0.095,0.67l-0.093,0.653l-0.097,0.67l-0.099,0.669l-0.1,0.668l-0.102,0.668l-0.103,0.668l-0.105,0.668l-0.107,0.668l-0.108,0.667l-0.107,0.652l-0.111,0.667l-0.113,0.667l-0.114,0.665l-0.116,0.666l-0.115,0.652l-0.119,0.666l-0.12,0.665l-0.122,0.665l-0.121,0.649l-0.125,0.666l-0.127,0.664l-0.125,0.649l-0.13,0.663l-0.131,0.663l-0.13,0.649l-0.135,0.664l-0.136,0.662l-0.134,0.646l-0.139,0.663l-0.138,0.647l-0.142,0.663l-0.144,0.66l-0.141,0.644l-0.147,0.662l-0.145,0.645l-0.147,0.646l-0.151,0.66l-0.153,0.659l-0.155,0.659l-0.152,0.643l-0.154,0.643l-0.16,0.66l-0.157,0.643l-0.158,0.64l-0.163,0.657l-0.162,0.643l-0.163,0.642l-0.169,0.657l-0.169,0.655l-0.167,0.638l-0.17,0.642l-0.17,0.641l-0.172,0.639l-0.177,0.653l-0.179,0.655l-0.177,0.639l-0.178,0.637l-0.179,0.636l-0.181,0.639l-0.187,0.652l-0.184,0.637l-0.181,0.62l-0.191,0.652l-0.193,0.65l-0.185,0.619l-0.192,0.637l-0.197,0.65l-0.194,0.631l-0.195,0.634l-0.202,0.648l-0.194,0.618l-0.201,0.635l-0.206,0.646l-0.199,0.617l-0.204,0.631l-0.211,0.645l-0.208,0.632l-0.209,0.629l-0.21,0.629l-0.207,0.614l-0.214,0.63l-0.22,0.644l-0.216,0.624l-0.213,0.615l-0.22,0.628l-0.221,0.628l-0.222,0.627l-0.223,0.622l-0.225,0.626l-0.228,0.628l-0.228,0.622l-0.223,0.608l-0.232,0.627l-0.239,0.637l-0.228,0.606l-0.23,0.609l-0.238,0.624l-0.243,0.635l-0.234,0.604l-0.236,0.606l-0.249,0.637l-0.244,0.618l-0.24,0.605l-0.241,0.604l-0.249,0.617l-0.25,0.619l-0.252,0.616l-0.248,0.605l-0.253,0.615l-0.256,0.614l-0.252,0.602l-0.26,0.616l-0.253,0.599l-0.261,0.612l-0.265,0.617l-0.258,0.596l-0.259,0.597l-0.269,0.615l-0.268,0.608l-0.265,0.598l-0.266,0.596l-0.272,0.607l-0.276,0.612l-0.27,0.595l-0.276,0.604l-0.273,0.594l-0.276,0.596l-0.281,0.606l-0.277,0.591l-0.278,0.592l-0.286,0.603l-0.287,0.603l-0.278,0.579l-0.29,0.602l-0.291,0.601l-0.282,0.577l-0.294,0.6l-0.291,0.589l-0.29,0.585l-0.3,0.6l-0.294,0.587l-0.293,0.58l-0.297,0.586l-0.305,0.598l-0.301,0.584l-0.301,0.583l-0.301,0.58l-0.304,0.582l-0.312,0.594l-0.307,0.581l-0.308,0.58l-0.309,0.58l-0.311,0.578l-0.312,0.578l-0.313,0.577l-0.315,0.577l-0.316,0.575l-0.317,0.575l-0.318,0.575l-0.327,0.586l-0.323,0.576l-0.318,0.563l-0.324,0.571l-0.325,0.571l-0.326,0.57l-0.337,0.584l-0.331,0.572l-0.324,0.555l-0.331,0.567l-0.335,0.569l-0.336,0.569l-0.329,0.552l-0.338,0.568l-0.348,0.578l-0.334,0.553l-0.343,0.565l-0.342,0.56l-0.345,0.564l-0.347,0.562l-0.341,0.55l-0.349,0.561l-0.35,0.559l-0.345,0.548l-0.353,0.558l-0.357,0.561l-0.355,0.557l-0.357,0.556l-0.351,0.543l-0.359,0.554l-0.356,0.546l-0.362,0.552l-0.363,0.552l-0.36,0.543l-0.365,0.55l-0.362,0.542l-0.371,0.552l-0.37,0.547l-0.363,0.535l-0.374,0.55l-0.369,0.537l-0.374,0.544l-0.378,0.546l-0.372,0.535l-0.373,0.534l-0.375,0.534l-0.383,0.543l-0.385,0.542l-0.383,0.537l-0.379,0.53l-0.383,0.533l-0.382,0.528l-0.391,0.538l-0.392,0.536l-0.378,0.515l-0.394,0.535l-0.388,0.524l-0.392,0.526l-0.401,0.536l-0.388,0.517l-0.401,0.531l-0.399,0.527l-0.395,0.518l-0.405,0.527l-0.4,0.52l-0.391,0.505l-0.41,0.529l-0.412,0.528l-0.395,0.502l-0.406,0.516l-0.416,0.524l-0.416,0.524l-0.403,0.503l-0.408,0.508l-0.42,0.52l-0.406,0.501l-0.422,0.518l-0.417,0.508l-0.409,0.498l-0.426,0.515l-0.419,0.506l-0.424,0.508l-0.422,0.503l-0.423,0.502l-0.424,0.501l-0.425,0.5l-0.43,0.504l-0.428,0.498l-0.429,0.497l-0.433,0.5l-0.435,0.5l-0.432,0.494l-0.433,0.493l-0.43,0.487l-0.439,0.495l-0.445,0.5l-0.442,0.493l-0.434,0.483l-0.44,0.487l-0.445,0.49l-0.438,0.48l-0.447,0.488l-0.449,0.487l-0.449,0.486l-0.451,0.485l-0.443,0.475l-0.453,0.483l-0.454,0.481l-0.455,0.481l-0.448,0.471l-0.457,0.479l-0.459,0.477l-0.455,0.472l-0.465,0.479l-0.457,0.47l-0.455,0.465l-0.472,0.48l-0.465,0.471l-0.458,0.462l-0.471,0.473l-0.46,0.459l-0.47,0.467l-0.466,0.461l-0.467,0.46l-0.485,0.476l-0.47,0.458l-0.466,0.453l-0.48,0.464l-0.481,0.462l-0.47,0.45l-0.475,0.453l-0.489,0.463l-0.477,0.451l-0.482,0.452l-0.484,0.453l-0.48,0.447l-0.485,0.45l-0.487,0.448l-0.492,0.452l-0.484,0.442l-0.49,0.446l-0.495,0.448l-0.488,0.439l-0.493,0.442l-0.49,0.437l-0.491,0.436l-0.504,0.446l-0.506,0.444l-0.486,0.426l-0.495,0.431l-0.509,0.441l-0.501,0.433l-0.503,0.431l-0.503,0.43l-0.509,0.433l-0.505,0.428l-0.507,0.427l-0.508,0.426l-0.504,0.421l-0.51,0.423l-0.511,0.422l-0.52,0.429l-0.513,0.419l-0.509,0.415l-0.515,0.417l-0.521,0.421l-0.517,0.414l-0.517,0.414l-0.528,0.42l-0.516,0.408l-0.521,0.41l-0.521,0.409l-0.524,0.408l-0.533,0.413l-0.524,0.405l-0.522,0.401l-0.532,0.407l-0.532,0.405l-0.529,0.4l-0.525,0.396l-0.536,0.402l-0.541,0.404l-0.529,0.392l-0.533,0.393l-0.544,0.401l-0.537,0.392l-0.536,0.39l-0.542,0.392l-0.541,0.39l-0.544,0.39l-0.539,0.384l-0.543,0.385l-0.552,0.39l-0.544,0.382l-0.545,0.38l-0.549,0.382l-0.547,0.379l-0.553,0.38l-0.548,0.376l-0.554,0.377l-0.556,0.376l-0.556,0.376l-0.556,0.372l-0.549,0.367l-0.56,0.371l-0.564,0.373l-0.556,0.365l-0.556,0.363l-0.569,0.37l-0.561,0.362l-0.562,0.362l-0.566,0.362l-0.557,0.355l-0.572,0.361l-0.574,0.362l-0.56,0.35l-0.57,0.356l-0.577,0.357l-0.568,0.35l-0.573,0.351l-0.567,0.346l-0.575,0.349l-0.581,0.35l-0.578,0.347l-0.577,0.344l-0.578,0.343l-0.575,0.339l-0.576,0.338l-0.586,0.342l-0.587,0.341l-0.579,0.334l-0.583,0.334l-0.586,0.334l-0.587,0.333l-0.591,0.334l-0.582,0.327l-0.587,0.327l-0.59,0.327l-0.597,0.33l-0.59,0.323l-0.583,0.318l-0.599,0.325l-0.601,0.323l-0.595,0.319l-0.593,0.316l-0.59,0.312l-0.601,0.317l-0.604,0.316l-0.599,0.312l-0.6,0.31l-0.597,0.307l-0.611,0.312l-0.602,0.306l-0.603,0.304l-0.61,0.306l-0.601,0.3l-0.605,0.3l-0.606,0.298l-0.613,0.301l-0.614,0.298l-0.614,0.297l-0.606,0.291l-0.609,0.292l-0.617,0.292l-0.614,0.29l-0.618,0.29l-0.613,0.285l-0.619,0.287l-0.624,0.286l-0.611,0.28l-0.615,0.279l-0.626,0.282l-0.623,0.279l-0.624,0.278l-0.619,0.273l-0.625,0.275l-0.632,0.276l-0.617,0.267l-0.625,0.269l-0.631,0.27l-0.629,0.267l-0.633,0.267l-0.627,0.262l-0.63,0.263l-0.635,0.262l-0.629,0.258l-0.63,0.256l-0.637,0.258l-0.638,0.256l-0.632,0.252l-0.641,0.254l-0.64,0.252l-0.587,0.229l-4.014,1.56l0.148,0.223l3.531,6.545l2.93,6.835l2.304,7.07l1.66,7.249l1.002,7.368l0.337,7.429l-0.319,7.166l0.393,-4.179l-0.227,-9.618l-0.994,-7.129l31.309,156.419l0.125,0.637l0.145,0.77l0.143,0.791l0.138,0.793l0.128,0.776l0.126,0.793l0.12,0.796l0.111,0.777l0.109,0.801l0.103,0.798l0.094,0.782l0.089,0.783l0.085,0.8l0.077,0.786l0.072,0.787l0.068,0.804l0.06,0.786l0.054,0.788l0.049,0.789l0.043,0.789l0.037,0.79l0.032,0.79l0.026,0.791l0.02,0.791l0.014,0.773l0.009,0.793l0.002,0.813l-0.003,0.774l-0.008,0.774l-0.014,0.795l-0.021,0.795l-0.025,0.775l-0.032,0.796l-0.038,0.798l-0.041,0.755l-0.047,0.777l-0.055,0.796l-0.061,0.798l-0.065,0.779l-0.071,0.777l-0.076,0.775l-0.082,0.779l-0.088,0.779l-0.093,0.776l-0.099,0.778l-0.104,0.777l-0.111,0.78l-0.113,0.757l-0.122,0.776l-0.127,0.778l-0.13,0.758l-0.139,0.777l-0.145,0.776l-0.15,0.775l-0.153,0.759l-0.158,0.757l-0.167,0.772l-0.169,0.756l-0.176,0.759l-0.184,0.773l-0.186,0.752l-0.192,0.756l-0.198,0.754l-0.203,0.753l-0.214,0.771l-0.21,0.737l-0.22,0.748l-0.23,0.766l-0.228,0.739l-0.23,0.725l-0.248,0.766l-0.251,0.752l-0.247,0.726l-0.255,0.731l-0.266,0.746l-0.27,0.738l-0.27,0.725l-0.286,0.748l-0.288,0.738l-0.289,0.725l-0.294,0.724l-0.299,0.721l-0.305,0.719l-0.314,0.726l-0.318,0.722l-0.324,0.719l-0.328,0.717l-0.334,0.714l-0.335,0.704l-0.348,0.717l-0.349,0.706l-0.35,0.696l-0.363,0.709l-0.364,0.698l-0.374,0.703l-0.383,0.708l-0.379,0.69l-0.384,0.685l-0.389,0.684l-0.394,0.681l-0.408,0.693l-0.418,0.698l-0.409,0.672l-0.413,0.667l-0.434,0.689l-0.428,0.67l-0.434,0.666l-0.438,0.663l-0.442,0.659l-0.454,0.665l-0.452,0.652l-0.462,0.658l-0.475,0.663l-0.462,0.637l-0.477,0.645l-0.49,0.655l-0.476,0.625l-0.495,0.64l-0.501,0.639l-0.498,0.624l-0.518,0.64l-0.513,0.624l-0.517,0.619l-0.522,0.617l-0.517,0.6l-0.538,0.616l-0.552,0.623l-0.537,0.595l-0.547,0.599l-0.551,0.594l-0.556,0.59l-0.572,0.598l-0.557,0.573l-0.562,0.57l-0.577,0.577l-0.582,0.573l-0.587,0.569l-0.572,0.546l-0.587,0.552l-0.612,0.567l-0.587,0.536l-0.591,0.531l-0.628,0.556l-0.6,0.524l-0.606,0.52l-0.621,0.526l-0.615,0.512l-0.631,0.518l-0.623,0.503l-0.63,0.502l-0.634,0.497l-0.636,0.491l-0.643,0.488l-0.638,0.477l-0.651,0.48l-0.656,0.475l-0.649,0.464l-0.664,0.466l-0.672,0.465l-0.662,0.449l-0.666,0.446l-0.66,0.434l-0.663,0.431l-0.692,0.44l-0.686,0.43l-0.689,0.425l-0.679,0.411l-0.672,0.4l-0.7,0.411l-0.704,0.405l-0.698,0.395l-0.701,0.39l-0.705,0.385l-0.7,0.375l-0.711,0.375l-0.714,0.369l-0.709,0.361l-0.728,0.363l-0.715,0.349l-0.717,0.345l-0.738,0.347l-0.732,0.338l-0.718,0.325l-0.728,0.323l-0.741,0.322l-0.735,0.314l-0.746,0.311l-0.748,0.305l-0.733,0.293l-0.746,0.291l-0.766,0.293l-0.732,0.274l-0.746,0.272l-0.773,0.276l-0.757,0.264l-0.752,0.255l-0.773,0.257l-0.782,0.252l-0.752,0.237l-0.754,0.231l-0.767,0.229l-0.776,0.226l-0.778,0.219l-0.781,0.214l-0.781,0.208l-0.764,0.197l-0.779,0.195l-0.805,0.195l-0.787,0.184l-0.763,0.172l-0.801,0.175l-0.785,0.165l-0.787,0.16l-0.807,0.156l-0.785,0.147l-0.806,0.144l-0.786,0.134l-0.787,0.129l-0.808,0.126l-0.805,0.119l-0.809,0.113l-0.789,0.104l-0.807,0.101l-0.826,0.096l-0.787,0.086l-0.808,0.082l-0.827,0.078l-0.787,0.067l-0.807,0.064l-0.826,0.058l-0.807,0.051l-0.825,0.046l-0.806,0.039l-0.805,0.032l-0.846,0.028l-0.803,0.019l-0.804,0.014l-0.823,0.008l-0.822,0.002l-0.822,-0.005l-0.801,-0.011l-0.82,-0.017l-0.839,-0.024l-0.819,-0.03l-0.819,-0.037l-0.816,-0.042l-0.815,-0.049l-0.814,-0.055l-0.834,-0.062l-0.833,-0.069l-0.79,-0.072l-0.829,-0.081l-0.83,-0.088l-0.807,-0.092l-0.824,-0.101l-0.664,-0.086l-156.909,-20.972l-7.691,-1.4l-7.525,-2.12l-7.29,-2.821l-6.992,-3.496l-6.631,-4.14l-6.211,-4.748l-3.773,-3.496l0.003,0.093l-120.37,-114.708l-119.822,46.592l-0.802,0.311l-0.863,0.331l-0.866,0.33l-0.863,0.325l-0.863,0.323l-0.863,0.32l-0.865,0.317l-0.873,0.318l-0.865,0.312l-0.866,0.309l-0.869,0.308l-0.867,0.304l-0.874,0.304l-0.869,0.299l-0.875,0.298l-0.871,0.295l-0.867,0.289l-0.878,0.291l-0.878,0.288l-0.868,0.282l-0.873,0.281l-0.88,0.28l-0.877,0.277l-0.88,0.275l-0.877,0.27l-0.877,0.268l-0.877,0.266l-0.879,0.263l-0.883,0.261l-0.88,0.258l-0.88,0.255l-0.881,0.253l-0.888,0.251l-0.879,0.247l-0.882,0.245l-0.884,0.242l-0.883,0.239l-0.889,0.238l-0.885,0.235l-0.885,0.231l-0.885,0.229l-0.891,0.228l-0.885,0.223l-0.888,0.222l-0.893,0.22l-0.887,0.216l-0.888,0.213l-0.889,0.21l-0.889,0.209l-0.891,0.205l-0.895,0.204l-0.89,0.2l-0.892,0.198l-0.896,0.196l-0.892,0.193l-0.892,0.189l-0.892,0.187l-0.894,0.185l-0.899,0.183l-0.892,0.179l-0.896,0.177l-0.9,0.175l-0.894,0.172l-0.896,0.169l-0.896,0.166l-0.896,0.164l-0.897,0.161l-0.901,0.159l-0.898,0.156l-0.898,0.153l-0.902,0.151l-0.899,0.148l-0.899,0.146l-0.897,0.142l-0.9,0.141l-0.905,0.138l-0.9,0.135l-0.9,0.132l-0.905,0.13l-0.9,0.127l-0.902,0.125l-0.901,0.122l-0.901,0.119l-0.902,0.116l-0.907,0.115l-0.903,0.111l-0.901,0.109l-0.909,0.107l-0.902,0.103l-0.903,0.101l-0.904,0.098l-0.903,0.096l-0.909,0.093l-0.904,0.091l-0.905,0.087l-0.909,0.086l-0.904,0.082l-0.905,0.08l-0.905,0.078l-0.905,0.074l-0.911,0.073l-0.904,0.069l-0.905,0.067l-0.907,0.064l-0.905,0.062l-0.911,0.059l-0.906,0.056l-0.906,0.054l-0.912,0.051l-0.906,0.049l-0.907,0.046l-0.906,0.043l-0.907,0.04l-0.912,0.039l-0.907,0.035l-0.906,0.033l-0.913,0.03l-0.907,0.028l-0.901,0.024l-0.913,0.023l-0.913,0.019l-0.907,0.017l-0.907,0.015l-0.907,0.012l-0.907,0.009l-0.907,0.006l-0.913,0.004l-0.907,0.002l-0.908,-0.002l-0.912,-0.004l-0.908,-0.006l-0.907,-0.009l-0.907,-0.012l-0.907,-0.015l-0.907,-0.017l-0.913,-0.019l-0.913,-0.023l-0.901,-0.024l-0.907,-0.028l-0.912,-0.03l-0.907,-0.033l-0.907,-0.035l-0.912,-0.039l-0.907,-0.04l-0.906,-0.043l-0.906,-0.046l-0.906,-0.049l-0.912,-0.051l-0.906,-0.054l-0.906,-0.056l-0.912,-0.059l-0.905,-0.062l-0.906,-0.064l-0.905,-0.067l-0.905,-0.069l-0.911,-0.073l-0.905,-0.074l-0.905,-0.078l-0.904,-0.08l-0.905,-0.082l-0.91,-0.086l-0.904,-0.087l-0.903,-0.091l-0.909,-0.093l-0.904,-0.096l-0.904,-0.098l-0.902,-0.101l-0.903,-0.103l-0.908,-0.107l-0.902,-0.109l-0.903,-0.111l-0.908,-0.115l-0.901,-0.116l-0.901,-0.119l-0.901,-0.122l-0.901,-0.125l-0.901,-0.127l-0.905,-0.13l-0.9,-0.132l-0.9,-0.135l-0.905,-0.138l-0.899,-0.141l-0.899,-0.142l-0.898,-0.146l-0.898,-0.147l-0.903,-0.152l-0.897,-0.153l-0.898,-0.156l-0.902,-0.159l-0.897,-0.161l-0.897,-0.164l-0.894,-0.166l-0.896,-0.169l-0.896,-0.172l-0.899,-0.175l-0.894,-0.176l-0.894,-0.18l-0.899,-0.183l-0.894,-0.185l-0.892,-0.187l-0.892,-0.189l-0.892,-0.193l-0.897,-0.196l-0.89,-0.198l-0.891,-0.2l-0.896,-0.204l-0.888,-0.205l-0.889,-0.208l-0.89,-0.211l-0.888,-0.213l-0.889,-0.217l-0.892,-0.219l-0.886,-0.221l-0.887,-0.224l-0.89,-0.228l-0.886,-0.229l-0.885,-0.231l-0.885,-0.235l-0.889,-0.238l-0.883,-0.239l-0.884,-0.242l-0.881,-0.245l-0.882,-0.247l-0.885,-0.251l-0.882,-0.253l-0.88,-0.255l-0.879,-0.257l-0.884,-0.262l-0.878,-0.263l-0.878,-0.266l-0.877,-0.268l-0.876,-0.27l-0.883,-0.276l-0.874,-0.276l-0.879,-0.279l-0.875,-0.282l-0.868,-0.282l-0.878,-0.288l-0.878,-0.291l-0.866,-0.289l-0.871,-0.295l-0.875,-0.298l-0.87,-0.299l-0.873,-0.304l-0.868,-0.304l-0.869,-0.308l-0.867,-0.31l-0.865,-0.312l-0.87,-0.316l-0.865,-0.318l-0.864,-0.32l-0.864,-0.323l-0.862,-0.325l-0.867,-0.33l-0.863,-0.331l-0.802,-0.311l-520.714,-202.478l-0.608,-0.237l-0.656,-0.258l-0.641,-0.254l-0.647,-0.258l-0.653,-0.262l-0.652,-0.264l-0.646,-0.263l-0.638,-0.262l-0.644,-0.266l-0.65,-0.27l-0.643,-0.269l-0.636,-0.269l-0.642,-0.272l-0.647,-0.277l-0.634,-0.273l-0.64,-0.277l-0.638,-0.279l-0.632,-0.277l-0.639,-0.282l-0.636,-0.284l-0.637,-0.285l-0.63,-0.284l-0.635,-0.288l-0.634,-0.29l-0.627,-0.288l-0.628,-0.291l-0.626,-0.291l-0.632,-0.296l-0.625,-0.295l-0.624,-0.296l-0.63,-0.301l-0.623,-0.3l-0.628,-0.303l-0.621,-0.303l-0.615,-0.301l-0.62,-0.305l-0.625,-0.31l-0.62,-0.309l-0.611,-0.307l-0.624,-0.315l-0.617,-0.313l-0.61,-0.312l-0.614,-0.316l-0.615,-0.318l-0.614,-0.319l-0.607,-0.318l-0.612,-0.322l-0.612,-0.324l-0.604,-0.322l-0.61,-0.327l-0.61,-0.328l-0.603,-0.327l-0.602,-0.328l-0.607,-0.333l-0.601,-0.331l-0.599,-0.332l-0.605,-0.338l-0.598,-0.336l-0.598,-0.337l-0.603,-0.342l-0.595,-0.34l-0.589,-0.338l-0.601,-0.346l-0.594,-0.345l-0.593,-0.346l-0.592,-0.348l-0.585,-0.345l-0.596,-0.353l-0.592,-0.353l-0.583,-0.35l-0.587,-0.354l-0.588,-0.356l-0.587,-0.358l-0.586,-0.359l-0.579,-0.358l-0.578,-0.358l-0.584,-0.363l-0.583,-0.365l-0.576,-0.363l-0.576,-0.364l-0.58,-0.37l-0.579,-0.37l-0.574,-0.369l-0.572,-0.37l-0.571,-0.371l-0.576,-0.377l-0.571,-0.374l-0.569,-0.376l-0.567,-0.376l-0.568,-0.379l-0.567,-0.381l-0.565,-0.381l-0.564,-0.382l-0.565,-0.384l-0.568,-0.39l-0.557,-0.383l-0.557,-0.385l-0.56,-0.389l-0.566,-0.396l-0.553,-0.388l-0.553,-0.39l-0.563,-0.399l-0.55,-0.393l-0.551,-0.395l-0.554,-0.399l-0.553,-0.4l-0.549,-0.4l-0.547,-0.399l-0.55,-0.405l-0.546,-0.403l-0.549,-0.408l-0.543,-0.405l-0.542,-0.406l-0.542,-0.408l-0.541,-0.41l-0.545,-0.415l-0.533,-0.407l-0.543,-0.417l-0.538,-0.416l-0.531,-0.412l-0.54,-0.421l-0.535,-0.419l-0.529,-0.416l-0.532,-0.421l-0.532,-0.423l-0.53,-0.424l-0.525,-0.422l-0.529,-0.426l-0.528,-0.428l-0.523,-0.426l-0.526,-0.431l-0.525,-0.431l-0.52,-0.43l-0.518,-0.431l-0.522,-0.435l-0.517,-0.434l-0.52,-0.438l-0.515,-0.436l-0.515,-0.438l-0.517,-0.442l-0.512,-0.44l-0.512,-0.441l-0.51,-0.443l-0.509,-0.443l-0.508,-0.445l-0.508,-0.446l-0.505,-0.447l-0.507,-0.45l-0.505,-0.45l-0.502,-0.45l-0.502,-0.453l-0.502,-0.454l-0.497,-0.452l-0.5,-0.456l-0.498,-0.457l-0.493,-0.455l-0.497,-0.46l-0.495,-0.461l-0.492,-0.46l-0.489,-0.459l-0.492,-0.465l-0.492,-0.467l-0.486,-0.463l-0.485,-0.464l-0.49,-0.471l-0.483,-0.468l-0.482,-0.467l-0.481,-0.47l-0.482,-0.472l-0.483,-0.476l-0.478,-0.473l-0.478,-0.475l-0.476,-0.475l-0.476,-0.478l-0.475,-0.478l-0.469,-0.476l-0.473,-0.48l-0.474,-0.485l-0.467,-0.48l-0.47,-0.485l-0.467,-0.484l-0.464,-0.483l-0.467,-0.488l-0.464,-0.489l-0.464,-0.49l-0.46,-0.488l-0.458,-0.488l-0.457,-0.489l-0.46,-0.495l-0.458,-0.496l-0.455,-0.494l-0.453,-0.495l-0.456,-0.499l-0.45,-0.496l-0.45,-0.498l-0.449,-0.499l-0.448,-0.501l-0.45,-0.505l-0.446,-0.502l-0.441,-0.5l-0.443,-0.504l-0.446,-0.51l-0.442,-0.508l-0.436,-0.504l-0.439,-0.509l-0.439,-0.511l-0.437,-0.511l-0.435,-0.513l-0.432,-0.51l-0.434,-0.515l-0.429,-0.512l-0.431,-0.517l-0.431,-0.518l-0.426,-0.516l-0.428,-0.52l-0.424,-0.518l-0.423,-0.519l-0.425,-0.523l-0.421,-0.522l-0.419,-0.522l-0.421,-0.526l-0.417,-0.525l-0.416,-0.525l-0.415,-0.526l-0.414,-0.528l-0.416,-0.533l-0.412,-0.53l-0.408,-0.526l-0.409,-0.532l-0.408,-0.533l-0.407,-0.534l-0.406,-0.535l-0.405,-0.536l-0.404,-0.538l-0.4,-0.534l-0.401,-0.538l-0.4,-0.541l-0.4,-0.542l-0.395,-0.538l-0.393,-0.54l-0.396,-0.544l-0.394,-0.545l-0.391,-0.544l-0.39,-0.543l-0.39,-0.549l-0.388,-0.547l-0.386,-0.546l-0.387,-0.551l-0.383,-0.549l-0.383,-0.551l-0.382,-0.551l-0.379,-0.551l-0.382,-0.557l-0.375,-0.551l-0.377,-0.555l-0.377,-0.559l-0.372,-0.554l-0.374,-0.558l-0.371,-0.559l-0.371,-0.56l-0.369,-0.561l-0.366,-0.558l-0.367,-0.564l-0.366,-0.564l-0.364,-0.564l-0.362,-0.563l-0.36,-0.563l-0.361,-0.568l-0.359,-0.569l-0.356,-0.566l-0.356,-0.567l-0.356,-0.572l-0.353,-0.569l-0.351,-0.57l-0.352,-0.575l-0.349,-0.572l-0.348,-0.573l-0.347,-0.574l-0.345,-0.575l-0.346,-0.579l-0.343,-0.577l-0.34,-0.574l-0.34,-0.579l-0.341,-0.583l-0.338,-0.581l-0.335,-0.578l-0.333,-0.578l-0.336,-0.586l-0.334,-0.586l-0.329,-0.581l-0.331,-0.586l-0.327,-0.583l-0.328,-0.588l-0.326,-0.589l-0.324,-0.586l-0.324,-0.591l-0.321,-0.588l-0.32,-0.589l-0.32,-0.593l-0.317,-0.591l-0.318,-0.595l-0.315,-0.593l-0.313,-0.593l-0.314,-0.598l-0.309,-0.591l-0.31,-0.597l-0.31,-0.6l-0.307,-0.598l-0.305,-0.599l-0.303,-0.596l-0.303,-0.6l-0.304,-0.605l-0.298,-0.598l-0.299,-0.603l-0.299,-0.605l-0.296,-0.605l-0.296,-0.606l-0.292,-0.602l-0.293,-0.607l-0.29,-0.606l-0.288,-0.605l-0.29,-0.613l-0.287,-0.609l-0.284,-0.608l-0.285,-0.611l-0.282,-0.61l-0.282,-0.614l-0.279,-0.612l-0.278,-0.612l-0.277,-0.613l-0.276,-0.615l-0.275,-0.618l-0.273,-0.616l-0.271,-0.615l-0.27,-0.618l-0.269,-0.619l-0.267,-0.618l-0.266,-0.62l-0.265,-0.621l-0.262,-0.618l-0.262,-0.622l-0.262,-0.625l-0.258,-0.621l-0.257,-0.622l-0.257,-0.627l-0.255,-0.624l-0.253,-0.624l-0.253,-0.63l-0.25,-0.626l-0.249,-0.626l-0.248,-0.629l-0.246,-0.628l-0.244,-0.629l-0.244,-0.631l-0.243,-0.634l-0.24,-0.628l-0.239,-0.631l-0.238,-0.634l-0.237,-0.634l-0.235,-0.634l-0.234,-0.636l-0.232,-0.635l-0.23,-0.634l-0.229,-0.636l-0.228,-0.638l-0.227,-0.638l-0.225,-0.638l-0.223,-0.639l-0.222,-0.64l-0.222,-0.642l-0.218,-0.639l-0.218,-0.642l-0.217,-0.643l-0.214,-0.641l-0.213,-0.643l-0.213,-0.645l-0.21,-0.645l-0.209,-0.643l-0.208,-0.648l-0.206,-0.645l-0.204,-0.646l-0.205,-0.65l-0.201,-0.646l-0.2,-0.648l-0.199,-0.649l-0.198,-0.652l-0.196,-0.65l-0.194,-0.648l-0.193,-0.653l-0.192,-0.653l-0.19,-0.653l-0.189,-0.652l-0.187,-0.653l-0.186,-0.656l-0.184,-0.653l-0.182,-0.656l-0.181,-0.655l-0.18,-0.655l-0.178,-0.658l-0.178,-0.661l-0.175,-0.656l-0.173,-0.657l-0.173,-0.661l-0.171,-0.659l-0.169,-0.66l-0.168,-0.66l-0.166,-0.661l-0.165,-0.663l-0.163,-0.661l-0.162,-0.664l-0.161,-0.663l-0.158,-0.663l-0.158,-0.665l-0.155,-0.664l-0.155,-0.668l-0.152,-0.662l-0.152,-0.667l-0.15,-0.669l-0.148,-0.667l-0.147,-0.666l-0.145,-0.669l-0.144,-0.668l-0.142,-0.67l-0.141,-0.671l-0.139,-0.669l-0.138,-0.671l-0.136,-0.671l-0.134,-0.67l-0.133,-0.674l-0.132,-0.673l-0.13,-0.672l-0.128,-0.672l-0.127,-0.674l-0.126,-0.676l-0.124,-0.675l-0.122,-0.675l-0.12,-0.675l-0.12,-0.678l-0.117,-0.676l-0.117,-0.677l-0.114,-0.677l-0.113,-0.677l-0.111,-0.678l-0.11,-0.68l-0.109,-0.679l-0.107,-0.679l-0.105,-0.681l-0.104,-0.68l-0.102,-0.682l-0.1,-0.681l-0.099,-0.682l-0.098,-0.68l-0.095,-0.682l-0.095,-0.684l-0.093,-0.684l-0.091,-0.684l-0.09,-0.685l-0.088,-0.684l-0.086,-0.683l-0.085,-0.685l-0.083,-0.687l-0.082,-0.687l-0.08,-0.686l-0.078,-0.686l-0.077,-0.687l-0.076,-0.687l-0.074,-0.689l-0.072,-0.689l-0.07,-0.687l-0.069,-0.689l-0.068,-0.69l-0.065,-0.689l-0.065,-0.69l-0.062,-0.691l-0.061,-0.69l-0.06,-0.692l-0.058,-0.692l-0.056,-0.691l-0.054,-0.692l-0.053,-0.692l-0.052,-0.693l-0.05,-0.693l-0.048,-0.694l-0.046,-0.693l-0.045,-0.694l-0.044,-0.694l-0.041,-0.695l-0.04,-0.695l-0.039,-0.696l-0.037,-0.695l-0.035,-0.696l-0.034,-0.696l-0.032,-0.696l-0.03,-0.698l-0.029,-0.695l-0.027,-0.698l-0.025,-0.698l-0.024,-0.698l-0.022,-0.698l-0.021,-0.698l-0.019,-0.699l-0.017,-0.699l-0.016,-0.699l-0.014,-0.699l-0.012,-0.699l-0.011,-0.701l-0.009,-0.701l-0.007,-0.699l-0.006,-0.701l-0.004,-0.702l-0.003,-0.7l0,-0.652l0,-286.784l0,-0.648l0.003,-0.695l0.004,-0.695l0.006,-0.696l0.007,-0.694l0.009,-0.694l0.011,-0.695l0.012,-0.694l0.014,-0.694l0.015,-0.694l0.017,-0.693l0.019,-0.693l0.021,-0.694l0.022,-0.692l0.023,-0.691l0.026,-0.693l0.026,-0.692l0.029,-0.691l0.03,-0.691l0.032,-0.69l0.033,-0.692l0.035,-0.691l0.037,-0.689l0.038,-0.689l0.04,-0.689l0.041,-0.691l0.043,-0.688l0.045,-0.689l0.046,-0.687l0.048,-0.689l0.049,-0.687l0.051,-0.687l0.052,-0.687l0.055,-0.687l0.055,-0.686l0.058,-0.685l0.059,-0.686l0.06,-0.685l0.062,-0.685l0.064,-0.685l0.065,-0.685l0.067,-0.683l0.069,-0.683l0.07,-0.684l0.071,-0.682l0.073,-0.682l0.075,-0.683l0.077,-0.681l0.078,-0.681l0.079,-0.682l0.081,-0.68l0.083,-0.68l0.084,-0.681l0.086,-0.679l0.087,-0.678l0.089,-0.679l0.09,-0.679l0.092,-0.677l0.094,-0.677l0.095,-0.678l0.097,-0.677l0.098,-0.676l0.1,-0.676l0.101,-0.676l0.103,-0.674l0.104,-0.675l0.106,-0.674l0.108,-0.675l0.109,-0.673l0.11,-0.672l0.112,-0.673l0.114,-0.672l0.115,-0.671l0.117,-0.672l0.118,-0.672l0.12,-0.669l0.121,-0.669l0.123,-0.67l0.125,-0.669l0.126,-0.669l0.127,-0.668l0.129,-0.667l0.13,-0.667l0.133,-0.668l0.133,-0.667l0.135,-0.664l0.136,-0.666l0.139,-0.665l0.139,-0.664l0.141,-0.664l0.143,-0.663l0.144,-0.664l0.146,-0.662l0.146,-0.661l0.149,-0.662l0.15,-0.662l0.152,-0.66l0.153,-0.659l0.155,-0.66l0.156,-0.66l0.157,-0.658l0.159,-0.658l0.161,-0.657l0.162,-0.657l0.163,-0.656l0.166,-0.657l0.166,-0.655l0.168,-0.654l0.169,-0.655l0.172,-0.655l0.172,-0.654l0.174,-0.651l0.175,-0.652l0.177,-0.652l0.178,-0.652l0.181,-0.651l0.18,-0.649l0.183,-0.65l0.185,-0.65l0.185,-0.647l0.187,-0.648l0.189,-0.648l0.19,-0.646l0.191,-0.647l0.193,-0.646l0.195,-0.644l0.195,-0.644l0.198,-0.645l0.199,-0.644l0.2,-0.643l0.202,-0.641l0.203,-0.642l0.204,-0.641l0.206,-0.641l0.208,-0.641l0.208,-0.637l0.211,-0.639l0.212,-0.64l0.213,-0.637l0.214,-0.636l0.217,-0.638l0.217,-0.634l0.218,-0.634l0.221,-0.636l0.222,-0.635l0.223,-0.633l0.225,-0.632l0.226,-0.632l0.228,-0.632l0.229,-0.632l0.23,-0.629l0.231,-0.629l0.234,-0.63l0.234,-0.628l0.236,-0.628l0.237,-0.627l0.239,-0.625l0.24,-0.627l0.242,-0.626l0.243,-0.624l0.244,-0.623l0.246,-0.623l0.247,-0.624l0.249,-0.622l0.25,-0.62l0.251,-0.622l0.253,-0.619l0.254,-0.619l0.256,-0.619l0.256,-0.618l0.259,-0.618l0.259,-0.616l0.261,-0.615l0.263,-0.616l0.264,-0.615l0.265,-0.614l0.266,-0.613l0.269,-0.613l0.27,-0.613l0.27,-0.61l0.272,-0.61l0.274,-0.611l0.274,-0.607l0.276,-0.608l0.279,-0.611l0.278,-0.606l0.281,-0.606l0.281,-0.606l0.283,-0.603l0.284,-0.605l0.287,-0.605l0.287,-0.602l0.288,-0.602l0.289,-0.6l0.292,-0.602l0.293,-0.6l0.293,-0.598l0.295,-0.598l0.297,-0.599l0.299,-0.598l0.298,-0.595l0.3,-0.594l0.303,-0.596l0.303,-0.594l0.305,-0.593l0.306,-0.594l0.308,-0.592l0.308,-0.59l0.31,-0.59l0.311,-0.589l0.312,-0.588l0.314,-0.588l0.316,-0.589l0.317,-0.587l0.317,-0.584l0.32,-0.586l0.321,-0.585l0.321,-0.582l0.324,-0.583l0.324,-0.582l0.326,-0.581l0.327,-0.579l0.328,-0.58l0.33,-0.579l0.332,-0.579l0.332,-0.576l0.333,-0.575l0.336,-0.577l0.337,-0.576l0.338,-0.574l0.337,-0.57l0.34,-0.573l0.343,-0.573l0.343,-0.572l0.344,-0.569l0.344,-0.568l0.347,-0.568l0.349,-0.568l0.35,-0.568l0.35,-0.565l0.351,-0.565l0.354,-0.565l0.354,-0.561l0.356,-0.564l0.358,-0.563l0.357,-0.559l0.359,-0.56l0.362,-0.56l0.362,-0.558l0.363,-0.557l0.365,-0.557l0.366,-0.556l0.367,-0.555l0.369,-0.554l0.369,-0.553l0.372,-0.553l0.372,-0.552l0.374,-0.55l0.375,-0.55l0.375,-0.548l0.378,-0.548l0.379,-0.548l0.38,-0.547l0.381,-0.544l0.382,-0.545l0.384,-0.543l0.385,-0.544l0.386,-0.542l0.387,-0.541l0.389,-0.54l0.39,-0.539l0.391,-0.539l0.393,-0.537l0.393,-0.536l0.396,-0.537l0.396,-0.534l0.396,-0.533l0.399,-0.533l0.401,-0.534l0.4,-0.53l0.402,-0.53l0.404,-0.529l0.405,-0.529l0.406,-0.527l0.408,-0.527l0.408,-0.526l0.409,-0.524l0.412,-0.524l0.412,-0.523l0.413,-0.522l0.415,-0.521l0.415,-0.52l0.418,-0.519l0.418,-0.518l0.419,-0.517l0.421,-0.517l0.422,-0.515l0.423,-0.514l0.424,-0.513l0.426,-0.513l0.427,-0.512l0.428,-0.51l0.429,-0.509l0.43,-0.509l0.432,-0.508l0.433,-0.506l0.433,-0.505l0.436,-0.506l0.436,-0.503l0.438,-0.503l0.439,-0.502l0.439,-0.5l0.442,-0.501l0.442,-0.497l0.443,-0.498l0.445,-0.498l0.447,-0.496l0.446,-0.494l0.449,-0.494l0.45,-0.493l0.45,-0.491l0.451,-0.491l0.454,-0.49l0.454,-0.489l0.455,-0.487l0.457,-0.488l0.457,-0.485l0.458,-0.483l0.461,-0.485l0.462,-0.483l0.462,-0.481l0.463,-0.481l0.465,-0.48l0.466,-0.478l0.467,-0.478l0.468,-0.475l0.469,-0.475l0.471,-0.476l0.472,-0.473l0.472,-0.471l0.475,-0.472l0.474,-0.47l0.476,-0.468l0.478,-0.469l0.48,-0.467l0.479,-0.466l0.479,-0.463l0.483,-0.464l0.484,-0.464l0.484,-0.461l0.485,-0.46l0.488,-0.46l0.487,-0.458l0.488,-0.456l0.49,-0.457l0.492,-0.456l0.492,-0.453l0.494,-0.453l0.494,-0.452l0.495,-0.449l0.496,-0.45l0.499,-0.449l0.5,-0.448l0.499,-0.446l0.501,-0.444l0.502,-0.444l0.504,-0.443l0.504,-0.442l0.504,-0.439l0.509,-0.44l0.509,-0.44l0.508,-0.437l0.51,-0.435l0.511,-0.435l0.512,-0.433l0.513,-0.433l0.516,-0.432l0.516,-0.43l0.516,-0.43l0.517,-0.427l0.52,-0.427l0.52,-0.426l0.52,-0.423l0.523,-0.424l0.524,-0.423l0.524,-0.421l0.525,-0.419l0.527,-0.419l0.527,-0.417l0.528,-0.416l0.53,-0.416l0.533,-0.415l0.531,-0.412l0.531,-0.41l0.535,-0.411l0.536,-0.41l0.536,-0.408l0.537,-0.407l0.538,-0.405l0.539,-0.404l0.54,-0.403l0.543,-0.403l0.544,-0.401l0.542,-0.398l0.544,-0.399l0.547,-0.397l0.546,-0.396l0.548,-0.394l0.548,-0.393l0.55,-0.393l0.552,-0.391l0.552,-0.389l0.553,-0.389l0.554,-0.387l0.555,-0.386l0.556,-0.385l0.557,-0.383l0.559,-0.382l0.559,-0.381l0.561,-0.38l0.56,-0.378l0.562,-0.377l0.565,-0.376l0.564,-0.375l0.565,-0.373l0.566,-0.372l0.569,-0.371l0.568,-0.369l0.568,-0.368l0.572,-0.367l0.571,-0.366l0.573,-0.365l0.574,-0.363l0.573,-0.361l0.575,-0.36l0.577,-0.359l0.579,-0.359l0.578,-0.356l0.578,-0.355l0.582,-0.354l0.581,-0.353l0.582,-0.35l0.584,-0.351l0.585,-0.349l0.585,-0.347l0.586,-0.346l0.588,-0.344l0.588,-0.344l0.589,-0.342l0.59,-0.34l0.592,-0.34l0.593,-0.338l0.591,-0.335l0.596,-0.336l0.596,-0.335l0.595,-0.332l0.596,-0.33l0.599,-0.33l0.599,-0.329l0.6,-0.327l0.601,-0.326l0.602,-0.324l0.602,-0.323l0.603,-0.321l0.606,-0.321l0.605,-0.318l0.606,-0.317l0.609,-0.317l0.607,-0.314l0.61,-0.314l0.611,-0.312l0.61,-0.31l0.613,-0.309l0.612,-0.308l0.614,-0.306l0.615,-0.304l0.616,-0.304l0.616,-0.302l0.618,-0.3l0.62,-0.3l0.618,-0.297l0.62,-0.296l0.622,-0.296l0.621,-0.293l0.622,-0.291l0.625,-0.291l0.626,-0.29l0.625,-0.287l0.626,-0.286l0.627,-0.285l0.63,-0.284l0.63,-0.282l0.629,-0.28l0.629,-0.278l0.633,-0.278l0.633,-0.276l0.634,-0.275l0.634,-0.272l0.635,-0.272l0.637,-0.271l0.636,-0.268l0.639,-0.267l0.638,-0.266l0.64,-0.264l0.64,-0.263l0.64,-0.26l0.644,-0.261l0.643,-0.258l0.641,-0.256l0.647,-0.256l0.646,-0.254l0.597,-0.233l522.6,-203.212l0.802,-0.31l0.858,-0.33l0.861,-0.327l0.86,-0.324l0.861,-0.322l0.86,-0.319l0.864,-0.317l0.864,-0.315l0.865,-0.312l0.864,-0.308l0.864,-0.306l0.868,-0.305l0.867,-0.301l0.867,-0.298l0.868,-0.296l0.867,-0.293l0.87,-0.291l0.872,-0.289l0.869,-0.285l0.87,-0.283l0.874,-0.281l0.872,-0.278l0.874,-0.275l0.873,-0.272l0.874,-0.27l0.876,-0.268l0.876,-0.265l0.876,-0.262l0.875,-0.259l0.878,-0.258l0.879,-0.254l0.879,-0.252l0.878,-0.249l0.879,-0.247l0.88,-0.244l0.881,-0.241l0.881,-0.239l0.883,-0.237l0.882,-0.233l0.882,-0.231l0.883,-0.229l0.883,-0.225l0.885,-0.224l0.886,-0.22l0.883,-0.218l0.886,-0.216l0.887,-0.213l0.886,-0.21l0.887,-0.207l0.887,-0.205l0.889,-0.203l0.889,-0.199l0.889,-0.198l0.888,-0.194l0.889,-0.192l0.891,-0.189l0.891,-0.187l0.891,-0.184l0.892,-0.182l0.89,-0.179l0.892,-0.176l0.894,-0.174l0.893,-0.171l0.892,-0.168l0.894,-0.166l0.894,-0.163l0.894,-0.161l0.895,-0.158l0.895,-0.155l0.895,-0.153l0.896,-0.15l0.896,-0.148l0.897,-0.145l0.896,-0.142l0.898,-0.14l0.896,-0.137l0.898,-0.135l0.898,-0.132l0.898,-0.129l0.899,-0.127l0.898,-0.124l0.899,-0.121l0.899,-0.119l0.9,-0.116l0.9,-0.114l0.899,-0.111l0.901,-0.109l0.9,-0.105l0.901,-0.104l0.901,-0.1l0.901,-0.098l0.901,-0.096l0.901,-0.092l0.902,-0.09l0.903,-0.088l0.902,-0.085l0.901,-0.082l0.903,-0.08l0.903,-0.077l0.903,-0.074l0.903,-0.072l0.902,-0.07l0.904,-0.066l0.903,-0.064l0.904,-0.062l0.903,-0.058l0.904,-0.057l0.904,-0.053l0.904,-0.051l0.905,-0.048l0.904,-0.046l0.904,-0.043l0.904,-0.041l0.905,-0.038l0.904,-0.035l0.905,-0.033l0.905,-0.03l0.905,-0.027l0.904,-0.025l0.905,-0.022l0.905,-0.02l0.905,-0.017l0.905,-0.014l0.905,-0.012l0.906,-0.009l0.904,-0.007l0.905,-0.003l0.906,-0.002l0.905,0.002Zm-1.572,82.744l-0.666,0.003l-0.666,0.005l-0.666,0.007l-0.666,0.008l-0.666,0.011l-0.667,0.013l-0.666,0.014l-0.666,0.016l-0.666,0.019l-0.666,0.02l-0.666,0.022l-0.665,0.024l-0.666,0.026l-0.666,0.028l-0.666,0.03l-0.665,0.031l-0.666,0.034l-0.665,0.036l-0.666,0.037l-0.665,0.04l-0.666,0.041l-0.665,0.043l-0.665,0.045l-0.665,0.047l-0.665,0.05l-0.664,0.05l-0.665,0.053l-0.665,0.055l-0.664,0.057l-0.664,0.059l-0.665,0.06l-0.664,0.063l-0.664,0.064l-0.663,0.067l-0.664,0.068l-0.664,0.07l-0.663,0.072l-0.663,0.074l-0.663,0.076l-0.663,0.078l-0.663,0.08l-0.662,0.082l-0.663,0.083l-0.662,0.086l-0.662,0.087l-0.662,0.09l-0.661,0.091l-0.662,0.094l-0.661,0.095l-0.661,0.097l-0.661,0.099l-0.661,0.101l-0.66,0.103l-0.66,0.105l-0.66,0.106l-0.66,0.109l-0.66,0.111l-0.659,0.112l-0.659,0.115l-0.659,0.116l-0.658,0.118l-0.659,0.12l-0.658,0.123l-0.657,0.124l-0.658,0.126l-0.657,0.128l-0.657,0.129l-0.657,0.132l-0.656,0.134l-0.657,0.135l-0.656,0.138l-0.655,0.139l-0.655,0.142l-0.655,0.143l-0.655,0.145l-0.655,0.147l-0.654,0.15l-0.653,0.151l-0.654,0.152l-0.653,0.155l-0.653,0.157l-0.652,0.159l-0.652,0.16l-0.652,0.163l-0.652,0.164l-0.651,0.167l-0.651,0.168l-0.65,0.17l-0.65,0.172l-0.65,0.174l-0.649,0.176l-0.649,0.178l-0.648,0.18l-0.649,0.182l-0.647,0.184l-0.648,0.185l-0.647,0.188l-0.647,0.189l-0.646,0.192l-0.646,0.193l-0.645,0.195l-0.645,0.197l-0.645,0.199l-0.644,0.201l-0.644,0.203l-0.643,0.205l-0.643,0.207l-0.642,0.209l-0.642,0.21l-0.642,0.213l-0.641,0.214l-0.641,0.217l-0.64,0.218l-0.64,0.22l-0.639,0.222l-0.639,0.225l-0.638,0.226l-0.638,0.227l-0.637,0.23l-0.637,0.232l-0.637,0.234l-0.636,0.235l-0.635,0.238l-0.635,0.239l-0.635,0.242l-0.633,0.243l-0.634,0.245l-522.495,203.171l-0.457,0.178l-0.456,0.18l-0.455,0.18l-0.455,0.181l-0.454,0.183l-0.454,0.183l-0.453,0.185l-0.453,0.186l-0.451,0.186l-0.452,0.188l-0.45,0.189l-0.45,0.189l-0.45,0.191l-0.448,0.192l-0.448,0.193l-0.448,0.194l-0.447,0.195l-0.446,0.196l-0.446,0.197l-0.445,0.198l-0.444,0.199l-0.444,0.2l-0.443,0.201l-0.443,0.202l-0.441,0.203l-0.442,0.205l-0.44,0.205l-0.44,0.206l-0.44,0.207l-0.438,0.208l-0.438,0.21l-0.438,0.21l-0.436,0.211l-0.437,0.212l-0.435,0.214l-0.435,0.214l-0.434,0.215l-0.434,0.216l-0.433,0.218l-0.432,0.218l-0.431,0.219l-0.431,0.22l-0.431,0.221l-0.429,0.223l-0.429,0.223l-0.429,0.224l-0.427,0.225l-0.427,0.226l-0.427,0.227l-0.425,0.228l-0.425,0.229l-0.425,0.23l-0.424,0.231l-0.423,0.232l-0.422,0.233l-0.422,0.234l-0.421,0.235l-0.42,0.236l-0.42,0.237l-0.419,0.238l-0.418,0.238l-0.418,0.24l-0.417,0.241l-0.416,0.241l-0.416,0.243l-0.415,0.243l-0.414,0.245l-0.414,0.245l-0.413,0.246l-0.412,0.248l-0.412,0.248l-0.411,0.249l-0.41,0.25l-0.41,0.251l-0.408,0.252l-0.409,0.253l-0.407,0.254l-0.407,0.254l-0.406,0.256l-0.405,0.257l-0.405,0.257l-0.404,0.259l-0.403,0.259l-0.403,0.26l-0.402,0.262l-0.401,0.262l-0.401,0.263l-0.399,0.264l-0.399,0.265l-0.399,0.265l-0.397,0.267l-0.397,0.268l-0.397,0.268l-0.395,0.27l-0.395,0.27l-0.394,0.271l-0.394,0.272l-0.392,0.273l-0.392,0.274l-0.392,0.275l-0.39,0.276l-0.39,0.276l-0.389,0.278l-0.389,0.278l-0.387,0.279l-0.387,0.28l-0.387,0.281l-0.385,0.282l-0.385,0.283l-0.384,0.284l-0.383,0.284l-0.383,0.286l-0.382,0.286l-0.381,0.287l-0.38,0.288l-0.38,0.289l-0.379,0.29l-0.378,0.29l-0.378,0.292l-0.376,0.292l-0.376,0.293l-0.376,0.294l-0.374,0.295l-0.374,0.296l-0.373,0.296l-0.372,0.298l-0.372,0.298l-0.37,0.299l-0.37,0.3l-0.37,0.301l-0.368,0.302l-0.368,0.302l-0.367,0.304l-0.366,0.304l-0.366,0.305l-0.365,0.306l-0.364,0.306l-0.363,0.308l-0.362,0.308l-0.362,0.309l-0.361,0.31l-0.36,0.311l-0.36,0.312l-0.358,0.312l-0.358,0.314l-0.357,0.314l-0.357,0.315l-0.355,0.315l-0.355,0.317l-0.354,0.317l-0.353,0.318l-0.353,0.319l-0.352,0.32l-0.35,0.321l-0.351,0.321l-0.349,0.322l-0.349,0.323l-0.347,0.324l-0.348,0.325l-0.346,0.325l-0.345,0.326l-0.345,0.327l-0.344,0.328l-0.343,0.328l-0.342,0.329l-0.342,0.331l-0.341,0.33l-0.34,0.332l-0.339,0.332l-0.338,0.334l-0.338,0.334l-0.336,0.334l-0.336,0.336l-0.336,0.336l-0.334,0.337l-0.333,0.338l-0.333,0.339l-0.332,0.339l-0.331,0.34l-0.331,0.341l-0.329,0.342l-0.329,0.342l-0.328,0.343l-0.327,0.344l-0.326,0.345l-0.326,0.345l-0.325,0.346l-0.323,0.347l-0.323,0.348l-0.323,0.348l-0.321,0.349l-0.321,0.35l-0.32,0.351l-0.318,0.351l-0.319,0.352l-0.317,0.353l-0.316,0.353l-0.316,0.355l-0.315,0.355l-0.314,0.355l-0.313,0.357l-0.312,0.357l-0.312,0.358l-0.311,0.358l-0.309,0.36l-0.309,0.36l-0.309,0.361l-0.307,0.361l-0.306,0.362l-0.306,0.363l-0.305,0.364l-0.304,0.364l-0.303,0.365l-0.302,0.366l-0.302,0.366l-0.3,0.367l-0.3,0.368l-0.299,0.369l-0.298,0.369l-0.297,0.37l-0.296,0.37l-0.296,0.372l-0.295,0.371l-0.293,0.373l-0.293,0.373l-0.292,0.374l-0.292,0.375l-0.29,0.376l-0.289,0.376l-0.289,0.376l-0.288,0.378l-0.287,0.378l-0.286,0.379l-0.285,0.379l-0.284,0.38l-0.284,0.381l-0.282,0.381l-0.282,0.382l-0.281,0.383l-0.28,0.384l-0.279,0.384l-0.278,0.384l-0.277,0.386l-0.277,0.386l-0.275,0.386l-0.275,0.388l-0.274,0.388l-0.272,0.388l-0.272,0.39l-0.272,0.39l-0.27,0.39l-0.269,0.391l-0.269,0.392l-0.267,0.393l-0.267,0.393l-0.266,0.393l-0.265,0.395l-0.264,0.395l-0.263,0.395l-0.262,0.397l-0.261,0.397l-0.261,0.397l-0.259,0.398l-0.259,0.399l-0.258,0.399l-0.257,0.4l-0.255,0.401l-0.256,0.401l-0.254,0.402l-0.253,0.402l-0.252,0.403l-0.252,0.404l-0.25,0.404l-0.25,0.405l-0.248,0.405l-0.248,0.406l-0.247,0.407l-0.246,0.407l-0.245,0.408l-0.244,0.409l-0.243,0.409l-0.242,0.409l-0.241,0.41l-0.241,0.411l-0.239,0.412l-0.239,0.411l-0.237,0.413l-0.237,0.413l-0.236,0.414l-0.235,0.414l-0.234,0.415l-0.233,0.415l-0.232,0.416l-0.231,0.417l-0.23,0.417l-0.229,0.418l-0.228,0.418l-0.228,0.419l-0.226,0.419l-0.226,0.42l-0.224,0.421l-0.224,0.421l-0.222,0.421l-0.222,0.422l-0.221,0.423l-0.22,0.423l-0.218,0.424l-0.218,0.424l-0.217,0.425l-0.216,0.426l-0.215,0.426l-0.214,0.426l-0.214,0.427l-0.212,0.428l-0.211,0.428l-0.21,0.429l-0.21,0.429l-0.208,0.43l-0.207,0.43l-0.207,0.431l-0.205,0.431l-0.205,0.432l-0.203,0.432l-0.203,0.433l-0.201,0.433l-0.201,0.434l-0.199,0.435l-0.199,0.435l-0.198,0.435l-0.197,0.436l-0.195,0.436l-0.195,0.437l-0.194,0.438l-0.193,0.438l-0.191,0.438l-0.191,0.439l-0.19,0.44l-0.189,0.44l-0.188,0.44l-0.187,0.441l-0.186,0.441l-0.185,0.442l-0.184,0.443l-0.183,0.443l-0.182,0.443l-0.181,0.444l-0.18,0.444l-0.178,0.445l-0.178,0.445l-0.177,0.446l-0.176,0.446l-0.175,0.447l-0.174,0.447l-0.173,0.448l-0.172,0.448l-0.171,0.449l-0.17,0.449l-0.169,0.449l-0.168,0.45l-0.167,0.451l-0.166,0.451l-0.165,0.451l-0.164,0.452l-0.163,0.452l-0.162,0.453l-0.161,0.453l-0.16,0.454l-0.158,0.454l-0.158,0.454l-0.157,0.455l-0.156,0.455l-0.155,0.456l-0.153,0.457l-0.153,0.456l-0.152,0.457l-0.15,0.458l-0.15,0.458l-0.149,0.458l-0.147,0.459l-0.147,0.46l-0.145,0.459l-0.145,0.46l-0.143,0.461l-0.143,0.461l-0.141,0.461l-0.14,0.462l-0.14,0.462l-0.138,0.463l-0.137,0.463l-0.136,0.463l-0.135,0.464l-0.134,0.465l-0.134,0.464l-0.132,0.465l-0.13,0.466l-0.13,0.466l-0.129,0.466l-0.128,0.467l-0.127,0.467l-0.125,0.467l-0.125,0.468l-0.124,0.468l-0.122,0.469l-0.122,0.469l-0.12,0.469l-0.119,0.47l-0.119,0.47l-0.117,0.471l-0.116,0.471l-0.115,0.471l-0.114,0.471l-0.113,0.472l-0.112,0.473l-0.111,0.473l-0.11,0.473l-0.108,0.473l-0.108,0.474l-0.106,0.474l-0.106,0.475l-0.104,0.475l-0.104,0.475l-0.102,0.476l-0.101,0.476l-0.1,0.476l-0.099,0.477l-0.098,0.477l-0.097,0.477l-0.096,0.478l-0.094,0.478l-0.094,0.479l-0.092,0.479l-0.092,0.479l-0.09,0.479l-0.089,0.48l-0.088,0.48l-0.087,0.481l-0.086,0.48l-0.085,0.482l-0.084,0.481l-0.082,0.482l-0.082,0.482l-0.08,0.482l-0.08,0.483l-0.078,0.483l-0.077,0.483l-0.076,0.484l-0.075,0.484l-0.074,0.485l-0.072,0.484l-0.072,0.485l-0.07,0.485l-0.07,0.486l-0.068,0.486l-0.067,0.486l-0.066,0.486l-0.065,0.487l-0.064,0.487l-0.063,0.488l-0.061,0.487l-0.061,0.488l-0.059,0.488l-0.058,0.489l-0.057,0.489l-0.056,0.489l-0.055,0.489l-0.054,0.49l-0.052,0.49l-0.052,0.49l-0.05,0.491l-0.049,0.49l-0.048,0.491l-0.047,0.492l-0.046,0.491l-0.044,0.492l-0.044,0.492l-0.042,0.493l-0.041,0.492l-0.04,0.493l-0.039,0.493l-0.038,0.494l-0.037,0.494l-0.035,0.494l-0.034,0.494l-0.034,0.494l-0.032,0.495l-0.031,0.495l-0.029,0.495l-0.029,0.496l-0.027,0.495l-0.027,0.496l-0.025,0.496l-0.024,0.497l-0.023,0.496l-0.021,0.497l-0.021,0.497l-0.019,0.498l-0.018,0.497l-0.017,0.498l-0.016,0.498l-0.015,0.498l-0.013,0.499l-0.012,0.499l-0.012,0.499l-0.01,0.499l-0.008,0.499l-0.008,0.5l-0.007,0.5l-0.005,0.5l-0.004,0.5l-0.003,0.5l-0.002,0.501l0,0.501l0,286.685l0,0.507l0.002,0.506l0.003,0.506l0.004,0.506l0.006,0.505l0.006,0.506l0.008,0.505l0.009,0.505l0.01,0.504l0.011,0.505l0.013,0.504l0.013,0.504l0.015,0.504l0.016,0.504l0.017,0.503l0.019,0.503l0.019,0.503l0.021,0.503l0.022,0.502l0.023,0.502l0.024,0.502l0.026,0.502l0.026,0.502l0.028,0.501l0.029,0.501l0.03,0.501l0.031,0.5l0.032,0.5l0.034,0.5l0.035,0.5l0.036,0.5l0.037,0.499l0.038,0.499l0.039,0.498l0.041,0.499l0.041,0.498l0.043,0.498l0.044,0.498l0.045,0.497l0.047,0.497l0.047,0.497l0.049,0.496l0.049,0.497l0.051,0.496l0.052,0.495l0.053,0.496l0.054,0.495l0.056,0.495l0.056,0.494l0.058,0.494l0.059,0.494l0.06,0.494l0.061,0.494l0.062,0.493l0.064,0.492l0.064,0.493l0.066,0.492l0.067,0.492l0.067,0.492l0.069,0.491l0.071,0.491l0.071,0.491l0.072,0.49l0.074,0.49l0.074,0.49l0.076,0.489l0.077,0.489l0.078,0.489l0.079,0.489l0.08,0.488l0.082,0.488l0.082,0.487l0.084,0.487l0.084,0.487l0.086,0.487l0.087,0.486l0.088,0.486l0.089,0.485l0.09,0.485l0.092,0.485l0.092,0.485l0.093,0.484l0.095,0.483l0.096,0.484l0.097,0.483l0.097,0.483l0.099,0.482l0.101,0.482l0.101,0.482l0.102,0.481l0.103,0.481l0.105,0.481l0.105,0.48l0.107,0.48l0.108,0.48l0.109,0.479l0.11,0.478l0.111,0.479l0.112,0.478l0.113,0.478l0.114,0.477l0.115,0.477l0.117,0.476l0.117,0.477l0.119,0.475l0.119,0.476l0.121,0.475l0.122,0.474l0.122,0.475l0.124,0.474l0.125,0.473l0.126,0.473l0.127,0.473l0.129,0.472l0.129,0.472l0.13,0.471l0.132,0.471l0.132,0.471l0.133,0.47l0.135,0.47l0.135,0.47l0.137,0.469l0.138,0.468l0.139,0.469l0.139,0.467l0.141,0.468l0.142,0.467l0.143,0.466l0.144,0.466l0.145,0.466l0.146,0.465l0.147,0.465l0.149,0.465l0.149,0.464l0.15,0.463l0.151,0.463l0.153,0.463l0.153,0.462l0.155,0.462l0.155,0.461l0.156,0.461l0.158,0.461l0.159,0.46l0.159,0.459l0.161,0.46l0.161,0.458l0.163,0.458l0.164,0.458l0.165,0.458l0.165,0.456l0.167,0.457l0.168,0.456l0.169,0.455l0.17,0.455l0.17,0.455l0.172,0.454l0.173,0.454l0.174,0.453l0.175,0.452l0.176,0.453l0.177,0.451l0.178,0.451l0.179,0.451l0.18,0.451l0.181,0.449l0.182,0.45l0.183,0.448l0.184,0.449l0.185,0.448l0.186,0.447l0.187,0.447l0.188,0.446l0.189,0.446l0.19,0.445l0.191,0.445l0.192,0.445l0.193,0.444l0.194,0.443l0.195,0.443l0.195,0.442l0.197,0.442l0.198,0.441l0.199,0.441l0.2,0.44l0.201,0.44l0.202,0.44l0.203,0.438l0.204,0.438l0.204,0.438l0.206,0.437l0.207,0.437l0.208,0.436l0.208,0.436l0.21,0.435l0.211,0.434l0.211,0.434l0.213,0.434l0.214,0.433l0.214,0.432l0.216,0.432l0.216,0.431l0.218,0.431l0.218,0.43l0.219,0.43l0.221,0.429l0.221,0.428l0.222,0.428l0.223,0.428l0.225,0.427l0.225,0.426l0.226,0.426l0.227,0.425l0.228,0.424l0.229,0.425l0.23,0.423l0.231,0.423l0.231,0.422l0.233,0.422l0.234,0.421l0.234,0.421l0.236,0.42l0.236,0.419l0.238,0.419l0.238,0.419l0.24,0.417l0.24,0.418l0.241,0.416l0.242,0.416l0.243,0.415l0.244,0.415l0.245,0.414l0.246,0.414l0.247,0.413l0.248,0.412l0.248,0.412l0.25,0.411l0.25,0.411l0.252,0.41l0.252,0.409l0.254,0.409l0.254,0.408l0.255,0.408l0.256,0.407l0.257,0.406l0.258,0.406l0.258,0.405l0.26,0.404l0.261,0.404l0.261,0.403l0.263,0.403l0.263,0.402l0.264,0.401l0.266,0.401l0.266,0.4l0.267,0.399l0.267,0.399l0.269,0.398l0.27,0.397l0.27,0.397l0.272,0.397l0.272,0.395l0.274,0.395l0.274,0.394l0.275,0.394l0.276,0.393l0.277,0.392l0.277,0.392l0.279,0.391l0.28,0.39l0.28,0.39l0.281,0.389l0.282,0.388l0.283,0.388l0.284,0.387l0.285,0.386l0.286,0.386l0.287,0.385l0.287,0.384l0.288,0.384l0.29,0.383l0.29,0.382l0.291,0.382l0.292,0.381l0.292,0.38l0.294,0.38l0.294,0.379l0.296,0.378l0.296,0.377l0.297,0.377l0.298,0.376l0.299,0.376l0.299,0.374l0.301,0.374l0.301,0.374l0.302,0.372l0.303,0.372l0.304,0.372l0.305,0.37l0.306,0.37l0.306,0.369l0.308,0.368l0.308,0.368l0.309,0.367l0.31,0.366l0.311,0.366l0.311,0.364l0.313,0.364l0.313,0.364l0.314,0.362l0.315,0.362l0.316,0.361l0.317,0.361l0.317,0.36l0.319,0.359l0.319,0.358l0.32,0.357l0.321,0.357l0.321,0.356l0.323,0.355l0.323,0.355l0.324,0.354l0.325,0.353l0.326,0.352l0.327,0.351l0.327,0.351l0.329,0.35l0.329,0.349l0.33,0.349l0.331,0.348l0.331,0.347l0.333,0.346l0.333,0.345l0.334,0.345l0.335,0.344l0.335,0.343l0.337,0.342l0.337,0.342l0.338,0.341l0.339,0.34l0.34,0.339l0.34,0.339l0.342,0.337l0.342,0.337l0.343,0.336l0.344,0.336l0.344,0.334l0.346,0.334l0.346,0.333l0.347,0.332l0.347,0.331l0.349,0.331l0.349,0.33l0.35,0.329l0.351,0.328l0.352,0.327l0.353,0.327l0.353,0.326l0.354,0.325l0.355,0.324l0.355,0.323l0.357,0.323l0.357,0.321l0.358,0.321l0.359,0.32l0.359,0.32l0.361,0.318l0.361,0.318l0.362,0.316l0.362,0.316l0.364,0.316l0.364,0.314l0.365,0.313l0.366,0.313l0.366,0.312l0.368,0.311l0.368,0.31l0.369,0.309l0.369,0.308l0.371,0.308l0.371,0.307l0.372,0.306l0.372,0.305l0.374,0.304l0.374,0.303l0.375,0.303l0.375,0.301l0.377,0.301l0.377,0.3l0.378,0.299l0.379,0.298l0.379,0.298l0.38,0.296l0.381,0.296l0.382,0.294l0.382,0.294l0.384,0.293l0.383,0.292l0.385,0.291l0.385,0.291l0.387,0.289l0.386,0.289l0.388,0.288l0.388,0.286l0.39,0.286l0.389,0.285l0.391,0.284l0.391,0.284l0.392,0.282l0.393,0.282l0.393,0.28l0.395,0.28l0.395,0.279l0.395,0.277l0.397,0.277l0.397,0.276l0.398,0.276l0.398,0.274l0.399,0.273l0.4,0.273l0.401,0.271l0.401,0.271l0.403,0.269l0.402,0.269l0.404,0.268l0.404,0.267l0.405,0.266l0.406,0.265l0.406,0.264l0.407,0.263l0.408,0.263l0.409,0.261l0.409,0.26l0.41,0.26l0.411,0.258l0.411,0.258l0.412,0.257l0.413,0.255l0.413,0.255l0.414,0.254l0.415,0.253l0.415,0.252l0.417,0.251l0.417,0.25l0.417,0.249l0.418,0.248l0.419,0.247l0.42,0.246l0.42,0.246l0.421,0.244l0.422,0.243l0.422,0.243l0.423,0.241l0.424,0.24l0.425,0.24l0.425,0.238l0.425,0.238l0.427,0.236l0.427,0.236l0.428,0.234l0.428,0.234l0.429,0.233l0.43,0.231l0.431,0.231l0.431,0.229l0.431,0.229l0.433,0.228l0.433,0.226l0.434,0.226l0.434,0.225l0.435,0.223l0.436,0.223l0.437,0.222l0.437,0.22l0.437,0.22l0.439,0.219l0.439,0.217l0.44,0.217l0.44,0.216l0.441,0.214l0.442,0.214l0.442,0.212l0.443,0.212l0.443,0.211l0.445,0.209l0.445,0.209l0.445,0.207l0.446,0.207l0.447,0.205l0.448,0.204l0.448,0.204l0.448,0.202l0.45,0.201l0.45,0.201l0.45,0.199l0.452,0.198l0.451,0.197l0.453,0.196l0.453,0.195l0.454,0.194l0.454,0.193l0.455,0.192l0.456,0.191l0.456,0.19l0.457,0.188l0.458,0.188l0.458,0.187l0.458,0.185l0.46,0.185l0.46,0.183l0.46,0.183l0.462,0.181l0.461,0.18l520.613,202.439l0.636,0.246l0.638,0.245l0.637,0.243l0.639,0.24l0.638,0.239l0.64,0.237l0.639,0.235l0.641,0.233l0.64,0.231l0.641,0.229l0.642,0.227l0.642,0.225l0.643,0.224l0.643,0.221l0.643,0.22l0.644,0.217l0.645,0.216l0.645,0.213l0.645,0.212l0.646,0.21l0.646,0.208l0.647,0.205l0.647,0.204l0.647,0.203l0.648,0.2l0.649,0.198l0.649,0.196l0.649,0.194l0.649,0.193l0.65,0.19l0.651,0.189l0.65,0.186l0.652,0.185l0.651,0.183l0.652,0.18l0.652,0.179l0.653,0.177l0.653,0.175l0.653,0.173l0.654,0.171l0.654,0.169l0.655,0.168l0.655,0.165l0.655,0.163l0.655,0.162l0.656,0.159l0.656,0.158l0.657,0.156l0.657,0.153l0.657,0.152l0.657,0.15l0.658,0.148l0.658,0.146l0.659,0.144l0.658,0.142l0.659,0.14l0.66,0.138l0.659,0.137l0.66,0.134l0.66,0.132l0.661,0.131l0.66,0.128l0.661,0.127l0.661,0.125l0.662,0.123l0.662,0.12l0.662,0.119l0.662,0.117l0.662,0.115l0.663,0.113l0.663,0.112l0.663,0.109l0.664,0.107l0.663,0.106l0.664,0.103l0.664,0.101l0.664,0.1l0.665,0.098l0.664,0.095l0.665,0.094l0.665,0.092l0.666,0.09l0.665,0.088l0.666,0.086l0.666,0.084l0.666,0.082l0.666,0.08l0.666,0.079l0.667,0.076l0.666,0.075l0.667,0.072l0.667,0.071l0.667,0.068l0.667,0.067l0.668,0.065l0.667,0.063l0.668,0.06l0.668,0.059l0.667,0.057l0.668,0.056l0.669,0.053l0.668,0.051l0.668,0.049l0.668,0.048l0.669,0.045l0.669,0.044l0.668,0.041l0.669,0.04l0.669,0.037l0.669,0.036l0.669,0.034l0.669,0.032l0.669,0.03l0.669,0.028l0.67,0.026l0.669,0.024l0.669,0.022l0.67,0.021l0.669,0.018l0.67,0.017l0.669,0.014l0.67,0.013l0.669,0.01l0.67,0.009l0.67,0.007l0.669,0.005l0.67,0.002l0.67,0.001l0.669,-0.001l0.67,-0.002l0.67,-0.005l0.669,-0.007l0.67,-0.009l0.669,-0.01l0.67,-0.013l0.669,-0.014l0.67,-0.017l0.669,-0.018l0.67,-0.021l0.669,-0.022l0.67,-0.024l0.669,-0.026l0.669,-0.028l0.669,-0.03l0.669,-0.032l0.669,-0.034l0.669,-0.036l0.669,-0.037l0.669,-0.04l0.669,-0.041l0.668,-0.044l0.669,-0.045l0.668,-0.048l0.669,-0.049l0.668,-0.051l0.668,-0.053l0.668,-0.056l0.668,-0.057l0.668,-0.059l0.667,-0.06l0.668,-0.063l0.667,-0.065l0.667,-0.067l0.667,-0.068l0.667,-0.071l0.667,-0.072l0.667,-0.075l0.666,-0.076l0.667,-0.079l0.666,-0.08l0.666,-0.082l0.665,-0.084l0.666,-0.086l0.666,-0.088l0.665,-0.09l0.665,-0.092l0.665,-0.094l0.664,-0.095l0.665,-0.098l0.664,-0.1l0.664,-0.101l0.664,-0.103l0.664,-0.106l0.663,-0.107l0.663,-0.109l0.663,-0.112l0.663,-0.113l0.662,-0.115l0.663,-0.117l0.662,-0.119l0.661,-0.12l0.662,-0.123l0.661,-0.125l0.661,-0.127l0.661,-0.128l0.66,-0.131l0.66,-0.132l0.66,-0.134l0.66,-0.137l0.659,-0.138l0.659,-0.14l0.659,-0.142l0.658,-0.144l0.658,-0.146l0.658,-0.148l0.657,-0.15l0.658,-0.152l0.656,-0.153l0.657,-0.156l0.656,-0.158l0.656,-0.159l0.655,-0.162l0.656,-0.163l0.654,-0.165l0.655,-0.168l0.654,-0.169l0.654,-0.171l0.653,-0.173l0.653,-0.175l0.653,-0.177l0.652,-0.179l0.652,-0.18l0.652,-0.183l0.651,-0.185l0.651,-0.186l0.65,-0.189l0.65,-0.19l0.65,-0.193l0.649,-0.194l0.649,-0.196l0.648,-0.198l0.648,-0.2l0.647,-0.203l0.647,-0.204l0.647,-0.205l0.646,-0.208l0.646,-0.21l0.645,-0.212l0.645,-0.213l0.645,-0.216l0.644,-0.217l0.643,-0.22l0.643,-0.221l0.643,-0.224l0.642,-0.225l0.642,-0.227l0.641,-0.229l0.641,-0.231l0.64,-0.233l0.64,-0.235l0.639,-0.237l0.639,-0.239l0.638,-0.24l0.638,-0.243l0.637,-0.245l0.636,-0.246l168.771,-65.626l158.435,150.983l-0.012,0.013l156.749,20.951l0.185,0.024l0.185,0.023l0.185,0.021l0.185,0.019l0.185,0.018l0.185,0.017l0.184,0.015l0.185,0.014l0.185,0.013l0.184,0.011l0.185,0.009l0.184,0.009l0.185,0.006l0.184,0.006l0.184,0.003l0.184,0.003l0.184,0.001l0.184,0l0.184,-0.002l0.184,-0.003l0.183,-0.005l0.184,-0.006l0.183,-0.007l0.183,-0.009l0.183,-0.01l0.182,-0.012l0.183,-0.012l0.182,-0.015l0.182,-0.015l0.182,-0.018l0.182,-0.018l0.181,-0.02l0.182,-0.021l0.181,-0.022l0.181,-0.024l0.18,-0.026l0.18,-0.026l0.18,-0.028l0.18,-0.03l0.18,-0.03l0.179,-0.032l0.179,-0.034l0.179,-0.035l0.178,-0.036l0.178,-0.037l0.178,-0.039l0.177,-0.04l0.177,-0.041l0.177,-0.043l0.176,-0.044l0.176,-0.046l0.176,-0.046l0.175,-0.048l0.175,-0.05l0.174,-0.05l0.175,-0.052l0.173,-0.054l0.174,-0.054l0.173,-0.056l0.172,-0.057l0.172,-0.059l0.172,-0.06l0.171,-0.061l0.171,-0.062l0.17,-0.064l0.17,-0.065l0.169,-0.066l0.169,-0.067l0.169,-0.069l0.168,-0.07l0.167,-0.072l0.167,-0.072l0.167,-0.074l0.166,-0.075l0.165,-0.077l0.165,-0.077l0.164,-0.079l0.164,-0.08l0.163,-0.082l0.163,-0.082l0.162,-0.084l0.162,-0.085l0.161,-0.087l0.16,-0.087l0.16,-0.089l0.159,-0.09l0.158,-0.091l0.158,-0.093l0.158,-0.094l0.156,-0.095l0.156,-0.096l0.156,-0.097l0.155,-0.099l0.154,-0.1l0.153,-0.101l0.153,-0.102l0.152,-0.103l0.151,-0.105l0.151,-0.106l0.15,-0.107l0.149,-0.108l0.149,-0.109l0.148,-0.111l0.147,-0.112l0.146,-0.113l0.146,-0.114l0.145,-0.115l0.144,-0.117l0.143,-0.117l0.143,-0.119l0.142,-0.12l0.141,-0.121l0.14,-0.123l0.139,-0.123l0.139,-0.125l0.138,-0.125l0.137,-0.127l0.136,-0.128l0.135,-0.13l0.135,-0.13l0.133,-0.131l0.133,-0.133l0.132,-0.134l0.131,-0.135l0.13,-0.136l0.129,-0.137l0.128,-0.138l0.128,-0.14l0.126,-0.14l0.126,-0.141l0.124,-0.142l0.123,-0.143l0.121,-0.144l0.121,-0.144l0.119,-0.146l0.119,-0.146l0.117,-0.146l0.116,-0.148l0.114,-0.149l0.114,-0.149l0.112,-0.15l0.112,-0.15l0.11,-0.152l0.109,-0.152l0.107,-0.153l0.107,-0.154l0.105,-0.154l0.104,-0.155l0.103,-0.156l0.102,-0.156l0.1,-0.157l0.099,-0.158l0.099,-0.159l0.096,-0.159l0.096,-0.16l0.095,-0.16l0.093,-0.161l0.092,-0.162l0.091,-0.162l0.089,-0.163l0.089,-0.164l0.087,-0.164l0.086,-0.165l0.085,-0.165l0.083,-0.166l0.082,-0.166l0.082,-0.167l0.079,-0.168l0.079,-0.168l0.077,-0.169l0.076,-0.169l0.075,-0.17l0.074,-0.17l0.072,-0.171l0.071,-0.171l0.07,-0.172l0.069,-0.172l0.067,-0.173l0.066,-0.173l0.065,-0.174l0.064,-0.174l0.062,-0.175l0.061,-0.175l0.06,-0.175l0.058,-0.176l0.058,-0.177l0.056,-0.176l0.054,-0.178l0.054,-0.177l0.052,-0.178l0.051,-0.178l0.049,-0.179l0.049,-0.179l0.047,-0.18l0.045,-0.179l0.045,-0.181l0.043,-0.18l0.042,-0.181l0.04,-0.181l0.04,-0.181l0.038,-0.182l0.036,-0.182l0.036,-0.183l0.034,-0.182l0.032,-0.183l0.032,-0.183l0.03,-0.184l0.029,-0.184l0.027,-0.184l0.026,-0.184l0.025,-0.184l0.024,-0.185l0.022,-0.185l0.021,-0.185l0.019,-0.185l0.018,-0.186l0.017,-0.185l0.016,-0.186l0.014,-0.186l0.013,-0.187l0.011,-0.186l0.01,-0.187l0.009,-0.186l0.008,-0.187l0.006,-0.187l0.005,-0.187l0.003,-0.187l0.002,-0.188l0.001,-0.187l-0.001,-0.187l-0.002,-0.188l-0.003,-0.188l-0.005,-0.187l-0.006,-0.188l-0.008,-0.188l-0.009,-0.188l-0.01,-0.188l-0.012,-0.188l-0.013,-0.188l-0.014,-0.188l-0.016,-0.188l-0.017,-0.188l-0.018,-0.188l-0.02,-0.188l-0.022,-0.188l-0.022,-0.188l-0.024,-0.188l-0.026,-0.187l-0.027,-0.188l-0.028,-0.188l-0.03,-0.188l-0.031,-0.187l-0.033,-0.188l-0.034,-0.187l-0.035,-0.188l-0.037,-0.187l-31.754,-158.646l-0.002,-0.008l0,-0.008l0.001,-0.008l0.002,-0.008l0.002,-0.007l0.003,-0.007l0.005,-0.007l0.004,-0.006l0.001,0l-77.497,-73.852l122.309,-47.56l0.449,-0.175l0.448,-0.176l0.448,-0.178l0.447,-0.178l0.446,-0.179l0.446,-0.18l0.445,-0.182l0.445,-0.182l0.444,-0.184l0.443,-0.184l0.443,-0.185l0.442,-0.187l0.442,-0.187l0.441,-0.189l0.44,-0.19l0.44,-0.19l0.439,-0.192l0.439,-0.192l0.437,-0.194l0.438,-0.194l0.436,-0.196l0.436,-0.197l0.436,-0.197l0.435,-0.199l0.434,-0.199l0.434,-0.201l0.432,-0.202l0.433,-0.202l0.431,-0.204l0.432,-0.205l0.43,-0.205l0.43,-0.207l0.429,-0.207l0.429,-0.209l0.427,-0.209l0.428,-0.211l0.426,-0.211l0.426,-0.213l0.426,-0.213l0.425,-0.215l0.424,-0.215l0.423,-0.217l0.423,-0.217l0.422,-0.218l0.422,-0.22l0.421,-0.22l0.42,-0.221l0.419,-0.222l0.419,-0.223l0.419,-0.225l0.417,-0.225l0.417,-0.226l0.417,-0.227l0.416,-0.228l0.415,-0.229l0.414,-0.229l0.414,-0.231l0.413,-0.232l0.412,-0.233l0.412,-0.233l0.411,-0.235l0.411,-0.235l0.409,-0.237l0.409,-0.237l0.409,-0.238l0.408,-0.24l0.407,-0.24l0.406,-0.241l0.406,-0.242l0.405,-0.243l0.405,-0.244l0.403,-0.245l0.404,-0.245l0.402,-0.247l0.402,-0.248l0.401,-0.248l0.4,-0.25l0.4,-0.25l0.399,-0.251l0.398,-0.252l0.398,-0.253l0.397,-0.254l0.396,-0.255l0.396,-0.256l0.395,-0.257l0.394,-0.257l0.393,-0.259l0.393,-0.259l0.393,-0.26l0.391,-0.262l0.391,-0.262l0.39,-0.263l0.389,-0.264l0.389,-0.264l0.388,-0.266l0.387,-0.266l0.387,-0.268l0.386,-0.268l0.385,-0.269l0.384,-0.27l0.384,-0.271l0.383,-0.272l0.383,-0.273l0.381,-0.273l0.381,-0.274l0.38,-0.276l0.38,-0.276l0.379,-0.277l0.378,-0.278l0.377,-0.278l0.377,-0.28l0.376,-0.28l0.375,-0.282l0.375,-0.282l0.374,-0.283l0.373,-0.284l0.372,-0.284l0.372,-0.286l0.371,-0.286l0.37,-0.288l0.369,-0.288l0.369,-0.289l0.368,-0.289l0.367,-0.291l0.367,-0.291l0.365,-0.293l0.366,-0.293l0.364,-0.294l0.363,-0.294l0.363,-0.296l0.362,-0.297l0.362,-0.297l0.361,-0.298l0.359,-0.299l0.36,-0.299l0.358,-0.301l0.358,-0.301l0.357,-0.303l0.356,-0.303l0.355,-0.303l0.355,-0.305l0.354,-0.305l0.353,-0.307l0.352,-0.307l0.352,-0.307l0.351,-0.309l0.35,-0.31l0.35,-0.31l0.348,-0.311l0.348,-0.312l0.347,-0.312l0.347,-0.314l0.345,-0.314l0.345,-0.315l0.344,-0.316l0.344,-0.316l0.342,-0.318l0.342,-0.318l0.341,-0.319l0.34,-0.319l0.34,-0.321l0.338,-0.321l0.338,-0.322l0.338,-0.323l0.336,-0.324l0.335,-0.324l0.335,-0.325l0.334,-0.326l0.334,-0.327l0.332,-0.327l0.332,-0.328l0.331,-0.329l0.33,-0.33l0.329,-0.33l0.329,-0.331l0.328,-0.332l0.327,-0.333l0.326,-0.333l0.325,-0.335l0.325,-0.335l0.324,-0.335l0.323,-0.337l0.322,-0.337l0.321,-0.338l0.321,-0.339l0.32,-0.339l0.319,-0.34l0.318,-0.341l0.318,-0.341l0.316,-0.343l0.316,-0.343l0.315,-0.344l0.314,-0.344l0.314,-0.345l0.312,-0.346l0.312,-0.347l0.311,-0.347l0.31,-0.349l0.31,-0.348l0.308,-0.35l0.308,-0.35l0.307,-0.351l0.306,-0.352l0.305,-0.352l0.305,-0.353l0.303,-0.354l0.303,-0.354l0.302,-0.356l0.301,-0.356l0.301,-0.356l0.299,-0.357l0.299,-0.358l0.298,-0.359l0.297,-0.359l0.296,-0.36l0.295,-0.361l0.295,-0.362l0.293,-0.362l0.293,-0.363l0.292,-0.363l0.292,-0.364l0.29,-0.365l0.289,-0.366l0.289,-0.366l0.288,-0.367l0.287,-0.367l0.286,-0.368l0.285,-0.369l0.285,-0.37l0.283,-0.37l0.283,-0.371l0.282,-0.371l0.281,-0.372l0.28,-0.373l0.28,-0.374l0.278,-0.374l0.278,-0.375l0.277,-0.375l0.276,-0.376l0.275,-0.377l0.274,-0.377l0.273,-0.378l0.273,-0.379l0.271,-0.379l0.271,-0.38l0.27,-0.381l0.269,-0.381l0.268,-0.382l0.268,-0.383l0.266,-0.383l0.266,-0.383l0.264,-0.385l0.264,-0.385l0.263,-0.386l0.262,-0.386l0.261,-0.387l0.261,-0.387l0.259,-0.388l0.259,-0.389l0.257,-0.39l0.257,-0.389l0.256,-0.391l0.255,-0.391l0.254,-0.392l0.253,-0.393l0.253,-0.393l0.251,-0.393l0.251,-0.394l0.25,-0.395l0.248,-0.396l0.248,-0.396l0.247,-0.396l0.246,-0.398l0.246,-0.397l0.244,-0.399l0.243,-0.399l0.243,-0.399l0.242,-0.4l0.24,-0.401l0.24,-0.402l0.239,-0.401l0.238,-0.403l0.237,-0.403l0.236,-0.404l0.236,-0.404l0.234,-0.405l0.234,-0.405l0.232,-0.406l0.232,-0.407l0.231,-0.407l0.229,-0.407l0.229,-0.408l0.228,-0.409l0.227,-0.409l0.227,-0.41l0.225,-0.411l0.224,-0.411l0.224,-0.411l0.222,-0.412l0.222,-0.413l0.22,-0.413l0.22,-0.414l0.219,-0.414l0.218,-0.415l0.216,-0.415l0.216,-0.416l0.215,-0.417l0.215,-0.417l0.213,-0.417l0.212,-0.418l0.211,-0.419l0.211,-0.419l0.209,-0.42l0.209,-0.42l0.207,-0.42l0.207,-0.422l0.205,-0.421l0.205,-0.423l0.204,-0.422l0.203,-0.424l0.202,-0.424l0.201,-0.424l0.2,-0.425l0.199,-0.425l0.198,-0.426l0.197,-0.426l0.196,-0.427l0.195,-0.428l0.194,-0.427l0.194,-0.429l0.192,-0.429l0.191,-0.429l0.191,-0.43l0.189,-0.43l0.189,-0.431l0.187,-0.431l0.187,-0.432l0.186,-0.433l0.184,-0.432l0.184,-0.434l0.183,-0.433l0.181,-0.435l0.181,-0.434l0.18,-0.436l0.179,-0.435l0.177,-0.436l0.177,-0.437l0.176,-0.437l0.175,-0.438l0.174,-0.438l0.173,-0.438l0.172,-0.439l0.171,-0.44l0.17,-0.44l0.169,-0.44l0.168,-0.441l0.167,-0.441l0.166,-0.442l0.165,-0.442l0.164,-0.442l0.163,-0.444l0.162,-0.443l0.161,-0.444l0.16,-0.444l0.159,-0.445l0.158,-0.446l0.157,-0.445l0.156,-0.447l0.156,-0.446l0.154,-0.447l0.153,-0.448l0.152,-0.448l0.151,-0.448l0.15,-0.449l0.149,-0.449l0.148,-0.45l0.147,-0.45l0.146,-0.45l0.145,-0.451l0.144,-0.451l0.143,-0.452l0.142,-0.452l0.141,-0.453l0.14,-0.453l0.139,-0.453l0.138,-0.454l0.137,-0.454l0.136,-0.455l0.134,-0.455l0.134,-0.455l0.133,-0.456l0.132,-0.456l0.13,-0.457l0.13,-0.457l0.129,-0.457l0.127,-0.458l0.127,-0.458l0.126,-0.458l0.124,-0.459l0.124,-0.46l0.122,-0.459l0.122,-0.461l0.12,-0.46l0.119,-0.461l0.119,-0.461l0.117,-0.462l0.116,-0.462l0.115,-0.462l0.115,-0.463l0.113,-0.463l0.112,-0.463l0.111,-0.464l0.11,-0.464l0.109,-0.465l0.107,-0.465l0.107,-0.465l0.106,-0.466l0.105,-0.466l0.103,-0.466l0.103,-0.467l0.101,-0.467l0.101,-0.467l0.099,-0.468l0.098,-0.468l0.098,-0.469l0.096,-0.468l0.095,-0.469l0.094,-0.47l0.093,-0.47l0.092,-0.47l0.091,-0.47l0.09,-0.471l0.089,-0.471l0.087,-0.472l0.087,-0.472l0.085,-0.472l0.085,-0.472l0.083,-0.473l0.082,-0.473l0.082,-0.473l0.08,-0.474l0.079,-0.474l0.078,-0.475l0.077,-0.474l0.075,-0.475l0.075,-0.475l0.074,-0.476l0.072,-0.476l0.072,-0.476l0.07,-0.477l0.069,-0.477l0.068,-0.477l0.067,-0.477l0.066,-0.478l0.065,-0.478l0.064,-0.478l0.063,-0.479l0.061,-0.479l0.061,-0.479l0.059,-0.479l0.058,-0.48l0.058,-0.48l0.056,-0.48l0.055,-0.481l0.053,-0.481l0.053,-0.481l0.052,-0.482l0.05,-0.481l0.05,-0.482l0.048,-0.482l0.047,-0.483l0.046,-0.483l0.045,-0.483l0.044,-0.483l0.043,-0.484l0.041,-0.484l0.041,-0.484l0.039,-0.484l0.039,-0.485l0.037,-0.485l0.036,-0.485l0.035,-0.485l0.033,-0.486l0.033,-0.486l0.031,-0.486l0.031,-0.486l0.029,-0.487l0.028,-0.486l0.027,-0.488l0.026,-0.487l0.024,-0.487l0.024,-0.488l0.022,-0.488l0.022,-0.488l0.02,-0.489l0.019,-0.489l0.018,-0.489l0.016,-0.489l0.016,-0.489l0.014,-0.49l0.014,-0.49l0.012,-0.49l0.011,-0.49l0.01,-0.49l0.008,-0.491l0.008,-0.491l0.006,-0.491l0.005,-0.491l0.004,-0.492l0.003,-0.492l0.002,-0.492l0.001,-0.492l0,-302.197l-0.001,-0.46l-0.002,-0.46l-0.002,-0.461l-0.004,-0.459l-0.005,-0.46l-0.006,-0.46l-0.007,-0.459l-0.008,-0.459l-0.009,-0.459l-0.011,-0.459l-0.011,-0.458l-0.012,-0.458l-0.014,-0.458l-0.014,-0.458l-0.016,-0.458l-0.017,-0.457l-0.017,-0.458l-0.019,-0.457l-0.02,-0.456l-0.021,-0.457l-0.022,-0.456l-0.023,-0.456l-0.024,-0.456l-0.026,-0.456l-0.026,-0.456l-0.027,-0.455l-0.029,-0.455l-0.029,-0.455l-0.031,-0.454l-0.031,-0.455l-0.033,-0.454l-0.033,-0.454l-0.035,-0.453l-0.036,-0.454l-0.037,-0.453l-0.038,-0.453l-0.039,-0.452l-0.04,-0.453l-0.041,-0.452l-0.042,-0.452l-0.043,-0.452l-0.044,-0.451l-0.045,-0.451l-0.046,-0.451l-0.048,-0.451l-0.048,-0.45l-0.049,-0.45l-0.051,-0.45l-0.051,-0.45l-0.053,-0.449l-0.053,-0.449l-0.055,-0.449l-0.055,-0.449l-0.057,-0.448l-0.057,-0.448l-0.059,-0.448l-0.06,-0.447l-0.06,-0.448l-0.062,-0.447l-0.063,-0.446l-0.063,-0.447l-0.065,-0.446l-0.066,-0.446l-0.067,-0.445l-0.068,-0.445l-0.069,-0.445l-0.07,-0.445l-0.07,-0.444l-0.072,-0.445l-0.073,-0.443l-0.074,-0.444l-0.075,-0.443l-0.076,-0.443l-0.077,-0.443l-0.078,-0.442l-0.079,-0.442l-0.08,-0.442l-0.081,-0.441l-0.082,-0.441l-0.083,-0.441l-0.084,-0.44l-0.085,-0.441l-0.086,-0.439l-0.087,-0.44l-0.088,-0.439l-0.089,-0.439l-0.09,-0.439l-0.091,-0.438l-0.092,-0.438l-0.093,-0.438l-0.094,-0.437l-0.095,-0.437l-0.096,-0.436l-0.097,-0.437l-0.098,-0.436l-0.099,-0.435l-0.1,-0.436l-0.101,-0.435l-0.102,-0.434l-0.103,-0.435l-0.103,-0.433l-0.105,-0.434l-0.106,-0.433l-0.107,-0.433l-0.108,-0.433l-0.108,-0.432l-0.11,-0.432l-0.111,-0.431l-0.111,-0.432l-0.113,-0.43l-0.114,-0.431l-0.114,-0.43l-0.116,-0.43l-0.116,-0.429l-0.118,-0.429l-0.118,-0.429l-0.12,-0.428l-0.12,-0.428l-0.121,-0.428l-0.123,-0.427l-0.123,-0.427l-0.124,-0.426l-0.125,-0.426l-0.127,-0.426l-0.127,-0.425l-0.128,-0.425l-0.129,-0.425l-0.13,-0.424l-0.131,-0.423l-0.132,-0.424l-0.132,-0.423l-0.134,-0.423l-0.135,-0.422l-0.136,-0.422l-0.136,-0.421l-0.138,-0.421l-0.138,-0.421l-0.14,-0.42l-0.14,-0.42l-0.141,-0.419l-0.143,-0.419l-0.143,-0.419l-0.144,-0.418l-0.145,-0.418l-0.146,-0.418l-0.147,-0.417l-0.148,-0.416l-0.149,-0.416l-0.15,-0.416l-0.15,-0.416l-0.152,-0.414l-0.153,-0.415l-0.153,-0.414l-0.154,-0.414l-0.156,-0.413l-0.156,-0.413l-0.157,-0.412l-0.158,-0.412l-0.159,-0.412l-0.16,-0.411l-0.161,-0.411l-0.162,-0.41l-0.163,-0.41l-0.163,-0.409l-0.165,-0.409l-0.165,-0.409l-0.167,-0.408l-0.167,-0.407l-0.168,-0.407l-0.169,-0.407l-0.17,-0.406l-0.171,-0.406l-0.172,-0.406l-0.173,-0.405l-0.173,-0.404l-0.175,-0.404l-0.175,-0.404l-0.177,-0.403l-0.177,-0.402l-0.178,-0.402l-0.179,-0.402l-0.18,-0.401l-0.181,-0.401l-0.182,-0.4l-0.182,-0.4l-0.184,-0.4l-0.184,-0.399l-0.186,-0.398l-0.186,-0.398l-0.187,-0.397l-0.188,-0.397l-0.189,-0.397l-0.19,-0.396l-0.19,-0.395l-0.192,-0.395l-0.192,-0.395l-0.193,-0.394l-0.195,-0.394l-0.195,-0.393l-0.196,-0.392l-0.196,-0.393l-0.198,-0.391l-0.199,-0.391l-0.199,-0.391l-0.2,-0.39l-0.202,-0.39l-0.202,-0.389l-0.203,-0.388l-0.203,-0.388l-0.205,-0.388l-0.206,-0.387l-0.206,-0.387l-0.207,-0.386l-0.209,-0.385l-0.209,-0.385l-0.209,-0.385l-0.211,-0.384l-0.212,-0.383l-0.212,-0.383l-0.214,-0.383l-0.214,-0.382l-0.215,-0.381l-0.216,-0.381l-0.216,-0.38l-0.218,-0.38l-0.218,-0.379l-0.22,-0.379l-0.22,-0.378l-0.221,-0.378l-0.222,-0.377l-0.222,-0.376l-0.224,-0.376l-0.224,-0.376l-0.226,-0.375l-0.226,-0.374l-0.227,-0.374l-0.227,-0.373l-0.229,-0.373l-0.229,-0.372l-0.231,-0.372l-0.231,-0.371l-0.232,-0.37l-0.232,-0.37l-0.234,-0.37l-0.234,-0.369l-0.236,-0.368l-0.236,-0.368l-0.237,-0.367l-0.238,-0.366l-0.238,-0.366l-0.24,-0.366l-0.24,-0.365l-0.241,-0.364l-0.242,-0.364l-0.243,-0.363l-0.243,-0.362l-0.244,-0.362l-0.246,-0.362l-0.246,-0.36l-0.246,-0.361l-0.248,-0.359l-0.249,-0.359l-0.249,-0.359l-0.25,-0.358l-0.251,-0.357l-0.251,-0.357l-0.253,-0.356l-0.253,-0.355l-0.254,-0.355l-0.255,-0.354l-0.256,-0.354l-0.257,-0.353l-0.257,-0.353l-0.258,-0.351l-0.259,-0.352l-0.26,-0.35l-0.26,-0.35l-0.262,-0.35l-0.262,-0.349l-0.263,-0.348l-0.264,-0.347l-0.264,-0.347l-0.266,-0.347l-0.266,-0.345l-0.267,-0.346l-0.267,-0.344l-0.269,-0.344l-0.269,-0.343l-0.27,-0.343l-0.271,-0.342l-0.272,-0.341l-0.272,-0.341l-0.273,-0.34l-0.274,-0.339l-0.275,-0.339l-0.276,-0.338l-0.276,-0.338l-0.277,-0.336l-0.278,-0.337l-0.279,-0.335l-0.279,-0.335l-0.28,-0.334l-0.281,-0.334l-0.282,-0.333l-0.283,-0.332l-0.283,-0.332l-0.284,-0.331l-0.285,-0.33l-0.286,-0.33l-0.286,-0.329l-0.287,-0.328l-0.288,-0.328l-0.289,-0.327l-0.289,-0.326l-0.29,-0.326l-0.291,-0.325l-0.292,-0.324l-0.292,-0.324l-0.294,-0.323l-0.294,-0.322l-0.294,-0.322l-0.296,-0.321l-0.296,-0.32l-0.297,-0.32l-0.298,-0.319l-0.298,-0.318l-0.3,-0.317l-0.3,-0.317l-0.3,-0.316l-0.302,-0.316l-0.302,-0.315l-0.303,-0.314l-0.304,-0.313l-0.304,-0.313l-0.305,-0.312l-0.306,-0.311l-0.307,-0.311l-0.307,-0.309l-0.308,-0.31l-0.309,-0.308l-0.31,-0.308l-0.31,-0.307l-0.311,-0.306l-0.312,-0.306l-0.313,-0.305l-0.313,-0.304l-0.314,-0.303l-0.315,-0.303l-0.315,-0.302l-0.316,-0.301l-0.317,-0.301l-0.318,-0.3l-0.318,-0.299l-0.319,-0.298l-0.32,-0.298l-0.32,-0.297l-0.321,-0.296l-0.322,-0.295l-0.323,-0.295l-0.323,-0.294l-0.324,-0.293l-0.325,-0.293l-0.326,-0.291l-0.326,-0.291l-0.327,-0.291l-0.327,-0.289l-0.329,-0.289l-0.329,-0.288l-0.329,-0.287l-0.331,-0.287l-0.331,-0.285l-0.332,-0.285l-0.332,-0.285l-0.334,-0.283l-0.334,-0.283l-0.334,-0.282l-0.336,-0.281l-0.336,-0.28l-0.336,-0.28l-0.338,-0.279l-0.338,-0.278l-0.339,-0.277l-0.339,-0.277l-0.34,-0.276l-0.341,-0.275l-0.342,-0.274l-0.342,-0.273l-0.343,-0.273l-0.343,-0.272l-0.345,-0.271l-0.345,-0.27l-0.345,-0.27l-0.347,-0.269l-0.347,-0.268l-0.347,-0.267l-0.349,-0.266l-0.349,-0.266l-0.35,-0.264l-0.35,-0.264l-0.351,-0.264l-0.352,-0.262l-0.352,-0.261l-0.353,-0.261l-0.354,-0.26l-0.354,-0.259l-0.356,-0.259l-0.355,-0.257l-0.357,-0.257l-0.357,-0.256l-0.357,-0.255l-0.359,-0.254l-0.359,-0.254l-0.36,-0.252l-0.36,-0.252l-0.361,-0.251l-0.362,-0.25l-0.362,-0.25l-0.363,-0.248l-0.364,-0.248l-0.364,-0.247l-0.365,-0.246l-0.366,-0.245l-0.366,-0.244l-0.367,-0.244l-0.367,-0.242l-0.369,-0.242l-0.368,-0.241l-0.37,-0.24l-0.37,-0.24l-0.371,-0.238l-0.371,-0.238l-0.372,-0.236l-0.373,-0.236l-0.373,-0.235l-0.374,-0.235l-0.375,-0.233l-0.375,-0.232l-0.376,-0.232l-0.376,-0.231l-0.378,-0.23l-0.377,-0.229l-0.379,-0.228l-0.379,-0.227l-0.379,-0.227l-0.381,-0.225l-0.38,-0.225l-0.382,-0.224l-0.382,-0.223l-0.383,-0.222l-0.383,-0.221l-0.384,-0.221l-0.385,-0.219l-0.385,-0.219l-0.386,-0.217l-0.387,-0.217l-0.387,-0.216l-0.387,-0.215l-0.389,-0.214l-0.389,-0.213l-0.389,-0.213l-0.39,-0.211l-0.391,-0.211l-0.391,-0.21l-0.392,-0.208l-0.393,-0.208l-0.393,-0.207l-0.394,-0.206l-0.394,-0.205l-0.395,-0.205l-0.396,-0.203l-0.396,-0.202l-0.397,-0.202l-0.397,-0.201l-0.398,-0.199l-0.399,-0.199l-0.399,-0.198l-0.4,-0.197l-0.4,-0.196l-0.401,-0.195l-0.402,-0.194l-0.402,-0.194l-0.402,-0.192l-0.404,-0.191l-0.404,-0.191l-0.404,-0.189l-0.405,-0.189l-0.406,-0.188l-0.406,-0.187l-0.407,-0.185l-0.407,-0.185l-0.408,-0.184l-0.409,-0.183l-0.409,-0.182l-0.409,-0.181l-0.411,-0.181l-0.411,-0.179l-0.411,-0.178l-0.412,-0.177l-0.413,-0.177l-0.413,-0.175l-0.413,-0.175l-0.415,-0.173l-0.414,-0.173l-0.416,-0.171l-0.416,-0.171l-0.416,-0.17l-0.417,-0.168l-0.418,-0.168l-0.418,-0.167l-0.419,-0.166l-0.419,-0.164l-0.42,-0.164l-532.948,-207.236l-0.633,-0.245l-0.634,-0.243l-0.635,-0.242l-0.635,-0.239l-0.635,-0.238l-0.636,-0.235l-0.636,-0.234l-0.637,-0.232l-0.638,-0.23l-0.638,-0.227l-0.638,-0.226l-0.639,-0.225l-0.639,-0.222l-0.64,-0.22l-0.64,-0.218l-0.641,-0.217l-0.641,-0.214l-0.641,-0.213l-0.642,-0.21l-0.643,-0.209l-0.643,-0.207l-0.643,-0.205l-0.644,-0.203l-0.644,-0.201l-0.645,-0.199l-0.645,-0.197l-0.645,-0.195l-0.646,-0.193l-0.646,-0.192l-0.647,-0.189l-0.647,-0.188l-0.647,-0.185l-0.648,-0.184l-0.648,-0.182l-0.649,-0.18l-0.649,-0.178l-0.649,-0.176l-0.65,-0.174l-0.65,-0.172l-0.65,-0.17l-0.651,-0.168l-0.651,-0.167l-0.652,-0.164l-0.651,-0.163l-0.652,-0.16l-0.653,-0.159l-0.653,-0.157l-0.653,-0.155l-0.653,-0.152l-0.654,-0.151l-0.654,-0.15l-0.655,-0.147l-0.654,-0.145l-0.655,-0.143l-0.656,-0.142l-0.655,-0.139l-0.656,-0.138l-0.656,-0.135l-0.657,-0.134l-0.656,-0.132l-0.657,-0.129l-0.658,-0.128l-0.657,-0.126l-0.658,-0.124l-0.658,-0.123l-0.658,-0.12l-0.659,-0.118l-0.659,-0.116l-0.659,-0.115l-0.659,-0.112l-0.66,-0.111l-0.659,-0.109l-0.66,-0.106l-0.661,-0.105l-0.66,-0.103l-0.661,-0.101l-0.661,-0.099l-0.661,-0.097l-0.661,-0.095l-0.661,-0.094l-0.662,-0.091l-0.662,-0.09l-0.662,-0.087l-0.662,-0.086l-0.662,-0.083l-0.663,-0.082l-0.663,-0.08l-0.663,-0.078l-0.663,-0.076l-0.663,-0.074l-0.663,-0.072l-0.664,-0.07l-0.663,-0.068l-0.664,-0.067l-0.664,-0.064l-0.664,-0.063l-0.664,-0.06l-0.665,-0.059l-0.664,-0.057l-0.665,-0.055l-0.664,-0.053l-0.665,-0.05l-0.665,-0.05l-0.665,-0.047l-0.665,-0.045l-0.665,-0.043l-0.666,-0.041l-0.665,-0.04l-0.665,-0.037l-0.666,-0.036l-0.665,-0.034l-0.666,-0.031l-0.666,-0.03l-0.665,-0.028l-0.666,-0.026l-0.666,-0.024l-0.666,-0.022l-0.666,-0.02l-0.666,-0.019l-0.666,-0.016l-0.666,-0.014l-0.666,-0.013l-0.666,-0.011l-0.667,-0.008l-0.666,-0.007l-0.666,-0.005l-0.666,-0.003l-0.666,-0.001l-0.667,0.001Zm645.88,1027.33l-1.655,7.25l-2.299,7.072l-2.924,6.837l-3.526,6.547l-4.1,6.204l-4.641,5.811l1.102,-1.26l4.159,-5.16l5.287,-8.46l4.152,-8.88l2.928,-8.785l1.999,-9.217l0.472,-5.013l-0.954,7.054Z" style="fill:#333;"/></svg>