<?xml version="1.0" encoding="UTF-8" standalone="no"?>
<!DOCTYPE svg PUBLIC "-//W3C//DTD SVG 1.1//EN" "http://www.w3.org/Graphics/SVG/1.1/DTD/svg11.dtd">
<svg width="100%" height="100%" viewBox="0 0 500 500" version="1.1" xmlns="http://www.w3.org/2000/svg" xmlns:xlink="http://www.w3.org/1999/xlink" xml:space="preserve" style="fill-rule:evenodd;clip-rule:evenodd;stroke-linejoin:round;stroke-miterlimit:1.41421;">
    <rect x="-0.633" y="-0.633" width="502.532" height="503.405" style="fill:rgb(51,51,51);"/>
    <g id="Bobble_Border-Purple" transform="matrix(-0.151521,0,0,0.155282,506.031,136.306)">
        <path d="M626.477,1471.3L474.759,1413.73C379.686,1377.66 316.818,1286.56 316.818,1184.88C316.818,1073.39 316.818,928.298 316.818,819.095C316.818,723.96 375.636,638.733 464.584,604.984C650.083,534.6 963.57,415.654 1125.68,354.146C1192.7,328.716 1266.71,328.716 1333.74,354.146C1492.13,414.243 1795.03,529.173 1981.86,600.064C2078.62,636.775 2142.6,729.48 2142.6,832.963C2142.6,938.724 2142.6,1073.85 2142.6,1179.97C2142.6,1284.61 2077.9,1378.35 1980.07,1415.47C1793.3,1486.33 1492.3,1600.54 1334.27,1660.5C1266.91,1686.06 1192.51,1686.06 1125.14,1660.5L915.789,1581.07L719.258,1763.82L719.273,1763.84C719.273,1763.84 593,1780.3 524.833,1789.19C515.047,1790.47 505.247,1786.94 498.526,1779.71C491.806,1772.48 488.993,1762.45 490.976,1752.78C504.645,1686.15 529.843,1563.31 530.367,1560.76C530.372,1560.73 530.364,1560.71 530.347,1560.69C530.346,1560.69 530.346,1560.69 530.346,1560.69L626.477,1471.3ZM893.384,1508.03L1128.07,1594.24C1193.68,1618.34 1265.73,1618.34 1331.35,1594.24C1475.62,1541.24 1741.44,1443.59 1914.2,1380.12C2013.34,1343.7 2079.23,1249.3 2079.23,1143.69C2079.23,1057.82 2079.23,954.828 2079.23,869.222C2079.23,764.773 2014.07,671.416 1916.03,635.399C1743.11,571.876 1475.49,473.567 1330.82,420.425C1265.55,396.445 1193.87,396.445 1128.59,420.425C980.201,474.935 702.445,576.969 530.22,640.236C440.086,673.347 380.18,759.173 380.18,855.196C380.18,945.01 380.18,1057.1 380.18,1148.65C380.18,1251.29 444.211,1343.02 540.552,1378.41L746.726,1454.15L698.893,1498.77L698.839,1498.75L577.593,1611.5L577.538,1611.44C577.538,1611.44 568.94,1653.06 561.984,1686.72C559.984,1696.4 562.794,1706.45 569.525,1713.69C576.256,1720.93 586.075,1724.46 595.875,1723.17C629.957,1718.67 672.089,1713.12 672.089,1713.12L671.999,1713.02L684.279,1701.6L685.024,1702.4L893.384,1508.03Z" style="fill:rgb(104,45,141);"/>
    </g>
    <g id="Bobble_Border-Black" transform="matrix(0.179875,0,0,0.179875,-9.25977,16.0597)">
        <path d="M2042.6,955.334L2042.6,911.084C2042.6,806.634 1977.44,713.277 1879.4,677.261C1706.48,613.738 1438.86,515.429 1294.19,462.286C1228.92,438.306 1157.24,438.306 1091.96,462.286C943.573,516.797 665.817,618.831 493.591,682.097C403.457,715.208 343.551,801.034 343.551,897.058C343.551,986.872 343.551,1098.96 343.551,1190.51C343.551,1293.15 407.582,1384.88 503.923,1420.27L710.097,1496.01L662.264,1540.63L662.21,1540.61L540.964,1653.36L540.91,1653.3C540.91,1653.3 532.311,1694.92 525.355,1728.58C523.355,1738.26 526.165,1748.31 532.896,1755.55C539.627,1762.79 549.446,1766.32 559.246,1765.03C593.328,1760.54 635.46,1754.98 635.46,1754.98L635.37,1754.88L647.65,1743.46L648.395,1744.26L856.756,1549.89L996.901,1601.37L996.901,1667.6L879.16,1622.93L682.629,1805.68L682.644,1805.7C682.644,1805.7 556.371,1822.16 488.204,1831.06C478.418,1832.33 468.618,1828.8 461.897,1821.57C455.177,1814.34 452.364,1804.31 454.347,1794.64C468.016,1728.01 493.214,1605.17 493.738,1602.62C493.743,1602.59 493.736,1602.57 493.718,1602.55C493.717,1602.55 493.717,1602.55 493.717,1602.55L589.848,1513.16L438.13,1455.59C343.058,1419.52 280.189,1328.42 280.189,1226.74C280.189,1115.25 280.189,970.16 280.189,860.956C280.189,765.822 339.008,680.594 427.955,646.845C613.454,576.462 926.941,457.516 1089.05,396.007C1156.07,370.577 1230.09,370.577 1297.11,396.007C1455.5,456.105 1758.4,571.034 1945.24,641.926C2041.99,678.636 2105.97,771.342 2105.97,874.825L2105.97,979.992L2042.6,955.334ZM2077.6,1337.96L2077.58,1337.93L2077.64,1337.9L2077.6,1337.96Z" style="fill:white;"/>
    </g>
    <g id="Controller-Buttons" transform="matrix(0.179875,0,0,0.179875,117.552,16.0597)">
        <path d="M1403.05,1589.94C1411.61,1584.83 1422.28,1584.83 1430.85,1589.94C1438.55,1594.53 1448.06,1600.2 1455.53,1604.65C1463.28,1609.27 1468.02,1617.62 1468.02,1626.63C1468.02,1636.21 1468.02,1648.71 1468.02,1658.32C1468.02,1667.4 1463.24,1675.82 1455.43,1680.47C1447.85,1685 1438.18,1690.75 1430.44,1695.37C1422.13,1700.32 1411.77,1700.32 1403.46,1695.37C1395.65,1690.72 1385.89,1684.9 1378.28,1680.36C1370.58,1675.78 1365.87,1667.49 1365.87,1658.53C1365.87,1648.86 1365.87,1636.17 1365.87,1626.5C1365.87,1617.57 1370.57,1609.29 1378.25,1604.72C1385.74,1600.26 1395.3,1594.56 1403.05,1589.94ZM1365.43,1524.72C1370.52,1533.29 1370.5,1543.96 1365.38,1552.51C1360.77,1560.21 1355.09,1569.71 1350.62,1577.17C1345.99,1584.91 1337.63,1589.64 1328.62,1589.62C1319.04,1589.61 1306.54,1589.58 1296.93,1589.57C1287.85,1589.55 1279.44,1584.75 1274.8,1576.94C1270.29,1569.34 1264.55,1559.67 1259.95,1551.91C1255.01,1543.59 1255.03,1533.24 1260,1524.93C1264.67,1517.13 1270.5,1507.39 1275.05,1499.78C1279.65,1492.1 1287.95,1487.4 1296.9,1487.42C1306.58,1487.43 1319.27,1487.46 1328.94,1487.48C1337.87,1487.49 1346.14,1492.21 1350.7,1499.89C1355.14,1507.39 1360.83,1516.96 1365.43,1524.72ZM1574.58,1524.72C1579.67,1533.29 1579.65,1543.96 1574.53,1552.51C1569.92,1560.21 1564.24,1569.71 1559.78,1577.17C1555.15,1584.91 1546.79,1589.64 1537.77,1589.62C1528.19,1589.61 1515.69,1589.58 1506.09,1589.57C1497,1589.55 1488.59,1584.75 1483.95,1576.94C1479.44,1569.34 1473.7,1559.67 1469.1,1551.91C1464.16,1543.59 1464.18,1533.24 1469.15,1524.93C1473.82,1517.13 1479.65,1507.39 1484.2,1499.78C1488.8,1492.1 1497.1,1487.4 1506.06,1487.42C1515.73,1487.43 1528.42,1487.46 1538.09,1487.48C1547.02,1487.49 1555.29,1492.21 1559.85,1499.89C1564.3,1507.39 1569.98,1516.96 1574.58,1524.72ZM1403.43,1381.13C1411.99,1376.02 1422.66,1376.02 1431.23,1381.13C1438.93,1385.72 1448.44,1391.39 1455.91,1395.84C1463.66,1400.46 1468.4,1408.81 1468.4,1417.82C1468.4,1427.4 1468.4,1439.9 1468.4,1449.51C1468.4,1458.59 1463.62,1467.01 1455.81,1471.66C1448.23,1476.18 1438.56,1481.94 1430.82,1486.56C1422.51,1491.51 1412.15,1491.51 1403.84,1486.56C1396.03,1481.91 1386.27,1476.09 1378.65,1471.55C1370.96,1466.97 1366.25,1458.68 1366.25,1449.72C1366.25,1440.05 1366.25,1427.36 1366.25,1417.69C1366.25,1408.76 1370.95,1400.48 1378.63,1395.91C1386.12,1391.45 1395.68,1385.75 1403.43,1381.13Z" style="fill:rgb(104,45,141);"/>
    </g>
    <g id="Controller-Direction.-Keys" transform="matrix(0.179875,0,0,0.179875,3.51009,-139.7)">
        <path d="M1414.24,2315.83L1414.24,2315.63C1414.24,2305.95 1414.24,2293.26 1414.24,2283.59C1414.24,2274.66 1418.94,2266.39 1426.62,2261.81C1434.11,2257.35 1443.67,2251.65 1451.42,2247.03C1459.98,2241.93 1470.65,2241.93 1479.21,2247.03C1486.92,2251.63 1496.43,2257.29 1503.9,2261.74C1511.65,2266.36 1516.39,2274.71 1516.39,2283.73L1516.39,2283.73L1516.39,2353.28L1576.52,2353.26L1576.52,2353.36L1586.08,2353.38C1595.01,2353.4 1603.28,2358.11 1607.84,2365.79C1612.29,2373.29 1617.97,2382.87 1622.57,2390.62C1627.66,2399.19 1627.64,2409.86 1622.52,2418.42C1617.91,2426.12 1612.23,2435.62 1607.77,2443.08C1603.13,2450.81 1594.78,2455.54 1585.76,2455.53C1576.18,2455.51 1563.68,2455.49 1554.08,2455.47C1553.49,2455.47 1552.91,2455.45 1552.33,2455.41L1516.39,2455.42L1516.39,2508.43L1516.01,2508.43L1516.01,2524.22C1516.01,2533.31 1511.23,2541.72 1503.42,2546.38C1495.83,2550.9 1486.17,2556.66 1478.43,2561.27C1470.12,2566.23 1459.76,2566.23 1451.44,2561.27C1443.64,2556.62 1433.88,2550.8 1426.26,2546.27C1418.57,2541.68 1413.86,2533.39 1413.86,2524.44C1413.86,2514.76 1413.86,2502.07 1413.86,2492.4C1413.86,2490.92 1413.99,2489.45 1414.24,2488.02L1414.24,2455.45L1378.46,2455.46C1377.84,2455.51 1377.23,2455.53 1376.61,2455.53L1347.2,2455.47L1347.16,2455.47L1347.16,2455.47L1344.92,2455.47C1335.84,2455.45 1327.43,2450.66 1322.79,2442.84C1318.28,2435.24 1312.54,2425.57 1307.94,2417.82C1303,2409.5 1303.02,2399.14 1307.99,2390.84C1312.66,2383.04 1318.49,2373.29 1323.04,2365.68C1327.64,2358 1335.94,2353.3 1344.89,2353.32L1349.18,2353.33L1414.24,2353.31L1414.24,2315.83Z" style="fill:rgb(104,45,141);"/>
    </g>
</svg>
