<?xml version="1.0" encoding="UTF-8" standalone="no"?>
<!DOCTYPE svg PUBLIC "-//W3C//DTD SVG 1.1//EN" "http://www.w3.org/Graphics/SVG/1.1/DTD/svg11.dtd">
<svg width="100%" height="100%" viewBox="0 0 412 95" version="1.1" xmlns="http://www.w3.org/2000/svg" xmlns:xlink="http://www.w3.org/1999/xlink" xml:space="preserve" style="fill-rule:evenodd;clip-rule:evenodd;stroke-linejoin:round;stroke-miterlimit:1.41421;">
    <g id="Wordmark" transform="matrix(0.263011,0,0,0.262963,-249.232,-316.057)">
        <path d="M1200.41,1345.91C1200.41,1367.24 1196.94,1386.74 1190.01,1404.41C1183.08,1422.07 1173.31,1437.24 1160.71,1449.91C1148.11,1462.57 1132.98,1472.41 1115.31,1479.41C1097.64,1486.41 1078.01,1489.91 1056.41,1489.91L947.611,1489.91L947.611,1201.91L1056.41,1201.91C1078.01,1201.91 1097.64,1205.41 1115.31,1212.41C1132.98,1219.41 1148.11,1229.24 1160.71,1241.91C1173.31,1254.57 1183.08,1269.74 1190.01,1287.41C1196.94,1305.07 1200.41,1324.57 1200.41,1345.91ZM1152.61,1345.91C1152.61,1329.37 1150.38,1314.51 1145.91,1301.31C1141.44,1288.11 1135.04,1276.97 1126.71,1267.91C1118.38,1258.84 1108.28,1251.87 1096.41,1247.01C1084.54,1242.14 1071.21,1239.71 1056.41,1239.71L994.611,1239.71L994.611,1452.11L1056.41,1452.11C1071.21,1452.11 1084.54,1449.71 1096.41,1444.91C1108.28,1440.11 1118.38,1433.14 1126.71,1424.01C1135.04,1414.87 1141.44,1403.74 1145.91,1390.61C1150.38,1377.47 1152.61,1362.57 1152.61,1345.91Z" style="fill:rgb(51,51,51);fill-rule:nonzero;"/>
        <path d="M2196.61,1282.71C2211.68,1282.71 2225.31,1285.17 2237.51,1290.11C2249.71,1295.04 2260.11,1302.04 2268.71,1311.11C2277.31,1320.17 2283.94,1331.17 2288.61,1344.11C2293.28,1357.04 2295.61,1371.57 2295.61,1387.71C2295.61,1403.84 2293.28,1418.37 2288.61,1431.31C2283.94,1444.24 2277.31,1455.27 2268.71,1464.41C2260.11,1473.54 2249.71,1480.57 2237.51,1485.51C2225.31,1490.44 2211.68,1492.91 2196.61,1492.91C2181.41,1492.91 2167.71,1490.44 2155.51,1485.51C2143.31,1480.57 2132.88,1473.54 2124.21,1464.41C2115.54,1455.27 2108.88,1444.24 2104.21,1431.31C2099.54,1418.37 2097.21,1403.84 2097.21,1387.71C2097.21,1371.57 2099.54,1357.04 2104.21,1344.11C2108.88,1331.17 2115.54,1320.17 2124.21,1311.11C2132.88,1302.04 2143.31,1295.04 2155.51,1290.11C2167.71,1285.17 2181.41,1282.71 2196.61,1282.71ZM2196.61,1459.31C2215.01,1459.31 2228.71,1453.14 2237.71,1440.81C2246.71,1428.47 2251.21,1410.84 2251.21,1387.91C2251.21,1364.97 2246.71,1347.27 2237.71,1334.81C2228.71,1322.34 2215.01,1316.11 2196.61,1316.11C2177.94,1316.11 2164.08,1322.34 2155.01,1334.81C2145.94,1347.27 2141.41,1364.97 2141.41,1387.91C2141.41,1410.84 2145.94,1428.47 2155.01,1440.81C2164.08,1453.14 2177.94,1459.31 2196.61,1459.31Z" style="fill:rgb(51,51,51);fill-rule:nonzero;"/>
        <g transform="matrix(3.80212,0,0,3.80282,947.611,1201.91)">
            <path d="M290.66,71.155C290.29,71.432 289.911,71.696 289.523,71.947C287.839,73.034 286.051,73.919 284.157,74.603C282.264,75.286 280.317,75.777 278.318,76.075C276.32,76.373 274.373,76.522 272.48,76.522C268.762,76.522 265.317,75.9 262.143,74.655C258.97,73.41 256.217,71.579 253.885,69.159C251.553,66.74 249.729,63.742 248.414,60.166C247.099,56.59 246.442,52.47 246.442,47.807C246.442,44.09 247.029,40.619 248.204,37.393C249.378,34.168 251.062,31.363 253.254,28.979C255.445,26.594 258.11,24.71 261.249,23.325C264.388,21.94 267.938,21.247 271.901,21.247C275.197,21.247 278.248,21.782 281.054,22.851C283.859,23.921 286.279,25.49 288.313,27.559C290.347,29.627 291.934,32.16 293.073,35.158C294.213,38.156 294.783,41.566 294.783,45.387C294.783,47.14 294.59,48.315 294.204,48.911C293.819,49.507 293.117,49.805 292.1,49.805L257.646,49.805C257.786,52.856 258.26,55.494 259.066,57.72C259.873,59.947 260.951,61.796 262.301,63.269C263.651,64.741 265.264,65.837 267.141,66.556C269.017,67.275 271.112,67.634 273.426,67.634C275.636,67.634 277.547,67.38 279.16,66.871C280.773,66.363 282.176,65.802 283.368,65.189C284.395,64.66 285.292,64.171 286.058,63.72L287.459,62.509C288.074,61.977 288.903,61.786 289.643,62.006C290.366,62.22 291.288,62.494 292.035,62.716C292.861,62.961 293.453,63.645 293.576,64.498C293.688,65.265 293.825,66.212 293.933,66.955C294.045,67.726 293.733,68.527 293.113,69.064L291.062,70.838L291.066,70.843C291.032,70.869 290.999,70.896 290.965,70.922L290.934,70.949C290.846,71.025 290.755,71.093 290.66,71.155ZM284.631,42.863C284.631,40.97 284.359,39.208 283.815,37.577C283.272,35.947 282.474,34.527 281.422,33.317C280.37,32.108 279.064,31.161 277.503,30.477C275.943,29.794 274.145,29.452 272.111,29.452C268.008,29.452 264.782,30.626 262.433,32.976C260.083,35.325 258.593,38.62 257.961,42.863L284.631,42.863Z" style="fill:rgb(51,51,51);"/>
        </g>
        <g transform="matrix(3.80212,0,0,3.80282,947.611,1201.91)">
            <path d="M233.531,31.708L233.501,31.713C234.413,33.747 234.869,36.008 234.869,38.498C234.869,41.127 234.352,43.512 233.317,45.65C232.283,47.789 230.854,49.612 229.03,51.12C227.207,52.628 225.032,53.785 222.508,54.591C219.983,55.398 217.247,55.801 214.302,55.801C213.179,55.801 212.083,55.739 211.014,55.617C209.944,55.494 208.901,55.327 207.884,55.117C206.867,55.713 206.113,56.344 205.622,57.01C205.131,57.677 204.886,58.36 204.886,59.061C204.886,60.219 205.394,61.078 206.411,61.639C207.428,62.2 208.77,62.603 210.435,62.848C212.101,63.094 214.003,63.251 216.143,63.321C218.282,63.392 220.456,63.514 222.665,63.69C224.875,63.865 227.049,64.154 229.188,64.557C231.327,64.961 233.23,65.627 234.895,66.556C236.561,67.485 237.902,68.739 238.919,70.316C239.936,71.894 240.445,73.945 240.445,76.47C240.445,78.784 239.866,81.045 238.709,83.254C237.552,85.463 235.877,87.426 233.685,89.144C231.494,90.862 228.82,92.239 225.664,93.273C222.508,94.307 218.913,94.824 214.88,94.824C210.882,94.824 207.402,94.439 204.439,93.667C201.475,92.896 199.003,91.853 197.022,90.538C195.04,89.223 193.568,87.707 192.603,85.989C191.639,84.271 191.157,82.483 191.157,80.624C191.157,78.1 191.954,75.944 193.55,74.156C195.146,72.367 197.311,70.965 200.046,69.948C198.573,69.247 197.39,68.283 196.496,67.056C195.601,65.828 195.154,64.216 195.154,62.217C195.154,60.639 195.733,58.991 196.89,57.273C198.047,55.555 199.783,54.1 202.098,52.908C199.433,51.436 197.329,49.481 195.786,47.044C194.243,44.607 193.471,41.759 193.471,38.498C193.471,35.833 193.988,33.431 195.023,31.293C196.057,29.154 197.504,27.331 199.363,25.823C201.221,24.315 203.422,23.158 205.964,22.352C208.507,21.545 211.286,21.142 214.302,21.142C218.93,21.142 222.963,22.106 226.4,24.035L234.016,24.035L237.197,24.033C238.123,24.032 238.982,24.386 239.457,24.963C239.92,25.527 240.512,26.247 240.992,26.83C241.521,27.474 241.522,28.278 240.993,28.923C240.517,29.504 239.929,30.22 239.468,30.783C238.989,31.366 238.123,31.724 237.187,31.725C236.193,31.725 234.896,31.726 233.9,31.727C233.776,31.727 233.652,31.721 233.531,31.708ZM230.03,78.363C230.03,77.171 229.688,76.215 229.004,75.497C228.32,74.778 227.4,74.217 226.242,73.814C225.085,73.41 223.735,73.112 222.192,72.92C220.649,72.727 219.009,72.587 217.274,72.499C215.538,72.411 213.767,72.324 211.961,72.236C210.155,72.148 208.41,71.982 206.727,71.736C205.044,72.613 203.667,73.665 202.598,74.892C201.528,76.119 200.993,77.539 200.993,79.152C200.993,80.204 201.265,81.185 201.809,82.097C202.352,83.009 203.194,83.798 204.333,84.464C205.473,85.13 206.928,85.656 208.699,86.041C210.47,86.427 212.601,86.62 215.091,86.62C220.07,86.62 223.805,85.849 226.295,84.306C228.785,82.763 230.03,80.782 230.03,78.363ZM214.302,48.438C217.808,48.438 220.438,47.544 222.192,45.756C223.945,43.967 224.822,41.636 224.822,38.761C224.822,35.816 223.945,33.484 222.192,31.766C220.438,30.048 217.808,29.189 214.302,29.189C210.83,29.189 208.208,30.048 206.438,31.766C204.667,33.484 203.781,35.816 203.781,38.761C203.781,40.163 204.009,41.46 204.465,42.653C204.921,43.845 205.587,44.87 206.464,45.729C207.341,46.588 208.436,47.254 209.751,47.728C211.067,48.201 212.583,48.438 214.302,48.438Z" style="fill:rgb(51,51,51);"/>
        </g>
        <g transform="matrix(3.80212,0,0,3.80282,947.611,1201.91)">
            <path d="M147,28.891C148.067,27.817 149.17,26.838 150.311,25.954C151.556,24.99 152.88,24.158 154.282,23.456C155.685,22.755 157.176,22.212 158.754,21.826C160.332,21.44 162.05,21.247 163.909,21.247C166.854,21.247 169.441,21.738 171.667,22.72C173.894,23.702 175.77,25.087 177.296,26.875C178.821,28.663 179.97,30.81 180.741,33.317C181.513,35.824 181.899,38.585 181.899,41.601L181.899,68.974C181.904,69.031 181.906,69.089 181.906,69.148C181.906,70.019 181.906,71.156 181.906,72.029C181.906,72.856 181.379,73.621 180.518,74.044C179.68,74.456 178.614,74.979 177.76,75.399C176.843,75.85 175.7,75.85 174.783,75.399C173.922,74.976 172.845,74.447 172.005,74.034C171.156,73.617 170.637,72.863 170.637,72.049C170.637,71.169 170.637,70.015 170.637,69.136C170.637,69.089 170.638,69.043 170.642,68.997L170.642,41.601C170.642,37.989 169.809,35.184 168.143,33.186C166.477,31.187 163.944,30.188 160.542,30.188C158.017,30.188 155.676,30.767 153.52,31.924C151.363,33.081 149.338,34.659 147.444,36.657L147.444,68.977C147.449,69.03 147.451,69.084 147.451,69.138C147.451,70.009 147.451,71.146 147.451,72.019C147.451,72.846 146.921,73.611 146.055,74.034C145.214,74.446 144.142,74.97 143.283,75.389C142.362,75.84 141.213,75.84 140.291,75.389C139.425,74.966 138.343,74.437 137.499,74.024C136.646,73.608 136.124,72.853 136.124,72.039C136.124,71.159 136.124,70.005 136.124,69.126C136.124,69.058 136.127,68.99 136.135,68.923L136.135,26.386L136.139,26.39L136.139,26.019C136.139,25.207 136.638,24.454 137.454,24.038C138.25,23.633 139.268,23.114 140.091,22.694C141.002,22.23 142.136,22.23 143.047,22.694C143.866,23.112 144.877,23.627 145.672,24.032C146.495,24.452 147,25.211 147,26.032L147,28.891Z" style="fill:rgb(51,51,51);"/>
        </g>
        <g transform="matrix(3.80212,0,0,3.80282,1819.29,1201.94)">
            <path d="M147,28.891C148.067,27.817 149.17,26.838 150.311,25.954C151.556,24.99 152.88,24.158 154.282,23.456C155.685,22.755 157.176,22.212 158.754,21.826C160.332,21.44 162.05,21.247 163.909,21.247C166.854,21.247 169.441,21.738 171.667,22.72C173.894,23.702 175.77,25.087 177.296,26.875C178.821,28.663 179.97,30.81 180.741,33.317C181.513,35.824 181.899,38.585 181.899,41.601L181.899,68.974C181.904,69.031 181.906,69.089 181.906,69.148C181.906,70.019 181.906,71.156 181.906,72.029C181.906,72.856 181.379,73.621 180.518,74.044C179.68,74.456 178.614,74.979 177.76,75.399C176.843,75.85 175.7,75.85 174.783,75.399C173.922,74.976 172.845,74.447 172.005,74.034C171.156,73.617 170.637,72.863 170.637,72.049C170.637,71.169 170.637,70.015 170.637,69.136C170.637,69.089 170.638,69.043 170.642,68.997L170.642,41.601C170.642,37.989 169.809,35.184 168.143,33.186C166.477,31.187 163.944,30.188 160.542,30.188C158.017,30.188 155.676,30.767 153.52,31.924C151.363,33.081 149.338,34.659 147.444,36.657L147.444,68.977C147.449,69.03 147.451,69.084 147.451,69.138C147.451,70.009 147.451,71.146 147.451,72.019C147.451,72.846 146.921,73.611 146.055,74.034C145.214,74.446 144.142,74.97 143.283,75.389C142.362,75.84 141.213,75.84 140.291,75.389C139.425,74.966 138.343,74.437 137.499,74.024C136.646,73.608 136.124,72.853 136.124,72.039C136.124,71.159 136.124,70.005 136.124,69.126C136.124,69.058 136.127,68.99 136.135,68.923L136.135,26.386L136.139,26.39L136.139,26.019C136.139,25.207 136.638,24.454 137.454,24.038C138.25,23.633 139.268,23.114 140.091,22.694C141.002,22.23 142.136,22.23 143.047,22.694C143.866,23.112 144.877,23.627 145.672,24.032C146.495,24.452 147,25.211 147,26.032L147,28.891Z" style="fill:rgb(51,51,51);"/>
        </g>
        <g transform="matrix(3.80212,0,0,3.80282,947.611,1201.91)">
            <path d="M111.767,68.594C110.649,69.781 109.469,70.864 108.229,71.841C106.984,72.823 105.66,73.665 104.258,74.366C102.855,75.067 101.356,75.611 99.76,75.996C98.165,76.382 96.455,76.575 94.631,76.575C91.686,76.575 89.091,76.084 86.846,75.102C84.602,74.12 82.717,72.736 81.192,70.947C79.666,69.159 78.518,67.012 77.746,64.505C76.975,61.998 76.589,59.237 76.589,56.221L76.589,25.805L76.59,25.805L76.59,25.747C76.59,24.935 77.111,24.182 77.961,23.766C78.791,23.361 79.85,22.842 80.708,22.422C81.657,21.958 82.839,21.958 83.787,22.422C84.641,22.84 85.694,23.355 86.522,23.76C87.38,24.18 87.905,24.94 87.905,25.76C87.905,26.631 87.905,27.768 87.905,28.641C87.905,28.696 87.903,28.75 87.898,28.804L87.898,56.221C87.898,59.833 88.731,62.638 90.397,64.636C92.063,66.635 94.596,67.634 97.998,67.634C100.488,67.634 102.811,67.064 104.968,65.925C107.124,64.785 109.15,63.216 111.043,61.218L111.043,25.754L111.046,25.754C111.047,24.942 111.568,24.19 112.419,23.774C113.249,23.368 114.31,22.85 115.169,22.43C116.118,21.966 117.302,21.966 118.251,22.43C119.106,22.848 120.16,23.363 120.988,23.768C121.847,24.188 122.373,24.947 122.373,25.767C122.373,26.638 122.373,27.775 122.373,28.649C122.373,28.744 122.366,28.838 122.353,28.93L122.353,68.892C122.363,68.975 122.369,69.06 122.369,69.145C122.369,70.016 122.369,71.153 122.369,72.026C122.369,72.853 121.869,73.618 121.053,74.041C120.26,74.453 119.25,74.976 118.441,75.396C117.572,75.847 116.49,75.847 115.621,75.396C114.805,74.973 113.786,74.444 112.99,74.031C112.186,73.614 111.694,72.86 111.694,72.046C111.694,71.166 111.694,70.012 111.694,69.132C111.694,68.949 111.719,68.769 111.767,68.594Z" style="fill:rgb(51,51,51);"/>
        </g>
    </g>
</svg>
