<?xml version="1.0" encoding="UTF-8" standalone="no"?>
<!DOCTYPE svg PUBLIC "-//W3C//DTD SVG 1.1//EN" "http://www.w3.org/Graphics/SVG/1.1/DTD/svg11.dtd">
<svg width="100%" height="100%" viewBox="0 0 1538 1256" version="1.1" xmlns="http://www.w3.org/2000/svg" xmlns:xlink="http://www.w3.org/1999/xlink" xml:space="preserve" style="fill-rule:evenodd;clip-rule:evenodd;stroke-linejoin:round;stroke-miterlimit:1.41421;">
    <g id="Bobble_Border-Purple" transform="matrix(0.84237,0,-0,0.86328,-266.878,-289.262)">
        <path d="M626.477,1471.3L474.759,1413.73C379.686,1377.66 316.818,1286.56 316.818,1184.88C316.818,1073.39 316.818,928.298 316.818,819.095C316.818,723.96 375.636,638.733 464.584,604.984C650.083,534.6 963.57,415.654 1125.68,354.146C1192.7,328.716 1266.71,328.716 1333.74,354.146C1492.13,414.243 1795.03,529.173 1981.86,600.064C2078.62,636.775 2142.6,729.48 2142.6,832.963C2142.6,938.724 2142.6,1073.85 2142.6,1179.97C2142.6,1284.61 2077.9,1378.35 1980.07,1415.47C1793.3,1486.33 1492.3,1600.54 1334.27,1660.5C1266.91,1686.06 1192.51,1686.06 1125.14,1660.5L915.789,1581.07L719.258,1763.82L719.273,1763.84C719.273,1763.84 593,1780.3 524.833,1789.19C515.047,1790.47 505.247,1786.94 498.526,1779.71C491.806,1772.48 488.993,1762.45 490.976,1752.78C504.645,1686.15 529.843,1563.31 530.367,1560.76C530.372,1560.73 530.364,1560.71 530.347,1560.69C530.346,1560.69 530.346,1560.69 530.346,1560.69L626.477,1471.3ZM893.384,1508.03L1128.07,1594.24C1193.68,1618.34 1265.73,1618.34 1331.35,1594.24C1475.62,1541.24 1741.44,1443.59 1914.2,1380.12C2013.34,1343.7 2079.23,1249.3 2079.23,1143.69C2079.23,1057.82 2079.23,954.828 2079.23,869.222C2079.23,764.773 2014.07,671.416 1916.03,635.399C1743.11,571.876 1475.49,473.567 1330.82,420.425C1265.55,396.445 1193.87,396.445 1128.59,420.425C980.201,474.935 702.445,576.969 530.22,640.236C440.086,673.347 380.18,759.173 380.18,855.196C380.18,945.01 380.18,1057.1 380.18,1148.65C380.18,1251.29 444.211,1343.02 540.552,1378.41L746.726,1454.15L698.893,1498.77L698.839,1498.75L577.593,1611.5L577.538,1611.44C577.538,1611.44 568.94,1653.06 561.984,1686.72C559.984,1696.4 562.794,1706.45 569.525,1713.69C576.256,1720.93 586.075,1724.46 595.875,1723.17C629.957,1718.67 672.089,1713.12 672.089,1713.12L671.999,1713.02L684.279,1701.6L685.024,1702.4L893.384,1508.03Z" style="fill:rgb(51,51,51);"/>
    </g>
    <g id="path6" transform="matrix(-0.440297,0,0,-0.440297,1163.55,842.986)">
        <path d="M1792,288L1792,-32C1792,-58.667 1782.67,-81.333 1764,-100C1745.33,-118.667 1722.67,-128 1696,-128L1376,-128C1349.33,-128 1326.67,-118.667 1308,-100C1289.33,-81.333 1280,-58.667 1280,-32L1280,288C1280,314.667 1289.33,337.333 1308,356C1326.67,374.667 1349.33,384 1376,384L1472,384L1472,576L960,576L960,384L1056,384C1082.67,384 1105.33,374.667 1124,356C1142.67,337.333 1152,314.667 1152,288L1152,-32C1152,-58.667 1142.67,-81.333 1124,-100C1105.33,-118.667 1082.67,-128 1056,-128L736,-128C709.333,-128 686.667,-118.667 668,-100C649.333,-81.333 640,-58.667 640,-32L640,288C640,314.667 649.333,337.333 668,356C686.667,374.667 709.333,384 736,384L832,384L832,576L320,576L320,384L416,384C442.667,384 465.333,374.667 484,356C502.667,337.333 512,314.667 512,288L512,-32C512,-58.667 502.667,-81.333 484,-100C465.333,-118.667 442.667,-128 416,-128L96,-128C69.333,-128 46.667,-118.667 28,-100C9.333,-81.333 0,-58.667 0,-32L0,288C0,314.667 9.333,337.333 28,356C46.667,374.667 69.333,384 96,384L192,384L192,576C192,610.667 204.667,640.667 230,666C255.333,691.333 285.333,704 320,704L832,704L832,896L736,896C709.333,896 686.667,905.333 668,924C649.333,942.667 640,965.333 640,992L640,1312C640,1338.67 649.333,1361.33 668,1380C686.667,1398.67 709.333,1408 736,1408L1056,1408C1082.67,1408 1105.33,1398.67 1124,1380C1142.67,1361.33 1152,1338.67 1152,1312L1152,992C1152,965.333 1142.67,942.667 1124,924C1105.33,905.333 1082.67,896 1056,896L960,896L960,704L1472,704C1506.67,704 1536.67,691.333 1562,666C1587.33,640.667 1600,610.667 1600,576L1600,384L1696,384C1722.67,384 1745.33,374.667 1764,356C1782.67,337.333 1792,314.667 1792,288Z" style="fill:rgb(51,51,51);fill-rule:nonzero;"/>
    </g>
</svg>
