<?xml version="1.0" encoding="UTF-8" standalone="no"?>
<!DOCTYPE svg PUBLIC "-//W3C//DTD SVG 1.1//EN" "http://www.w3.org/Graphics/SVG/1.1/DTD/svg11.dtd">
<svg width="100%" height="100%" viewBox="0 0 1538 1256" version="1.1" xmlns="http://www.w3.org/2000/svg" xmlns:xlink="http://www.w3.org/1999/xlink" xml:space="preserve" style="fill-rule:evenodd;clip-rule:evenodd;stroke-linejoin:round;stroke-miterlimit:1.41421;">
    <g id="Bobble_Border-Purple" transform="matrix(-0.84237,0,0,0.86328,1804.86,-289.262)">
        <path d="M626.477,1471.3L474.759,1413.73C379.686,1377.66 316.818,1286.56 316.818,1184.88C316.818,1073.39 316.818,928.298 316.818,819.095C316.818,723.96 375.636,638.733 464.584,604.984C650.083,534.6 963.57,415.654 1125.68,354.146C1192.7,328.716 1266.71,328.716 1333.74,354.146C1492.13,414.243 1795.03,529.173 1981.86,600.064C2078.62,636.775 2142.6,729.48 2142.6,832.963C2142.6,938.724 2142.6,1073.85 2142.6,1179.97C2142.6,1284.61 2077.9,1378.35 1980.07,1415.47C1793.3,1486.33 1492.3,1600.54 1334.27,1660.5C1266.91,1686.06 1192.51,1686.06 1125.14,1660.5L915.789,1581.07L719.258,1763.82L719.273,1763.84C719.273,1763.84 593,1780.3 524.833,1789.19C515.047,1790.47 505.247,1786.94 498.526,1779.71C491.806,1772.48 488.993,1762.45 490.976,1752.78C504.645,1686.15 529.843,1563.31 530.367,1560.76C530.372,1560.73 530.364,1560.71 530.347,1560.69C530.346,1560.69 530.346,1560.69 530.346,1560.69L626.477,1471.3ZM893.384,1508.03L1128.07,1594.24C1193.68,1618.34 1265.73,1618.34 1331.35,1594.24C1475.62,1541.24 1741.44,1443.59 1914.2,1380.12C2013.34,1343.7 2079.23,1249.3 2079.23,1143.69C2079.23,1057.82 2079.23,954.828 2079.23,869.222C2079.23,764.773 2014.07,671.416 1916.03,635.399C1743.11,571.876 1475.49,473.567 1330.82,420.425C1265.55,396.445 1193.87,396.445 1128.59,420.425C980.201,474.935 702.445,576.969 530.22,640.236C440.086,673.347 380.18,759.173 380.18,855.196C380.18,945.01 380.18,1057.1 380.18,1148.65C380.18,1251.29 444.211,1343.02 540.552,1378.41L746.726,1454.15L698.893,1498.77L698.839,1498.75L577.593,1611.5L577.538,1611.44C577.538,1611.44 568.94,1653.06 561.984,1686.72C559.984,1696.4 562.794,1706.45 569.525,1713.69C576.256,1720.93 586.075,1724.46 595.875,1723.17C629.957,1718.67 672.089,1713.12 672.089,1713.12L671.999,1713.02L684.279,1701.6L685.024,1702.4L893.384,1508.03Z" style="fill:rgb(104,45,141);"/>
    </g>
    <g id="path2993" transform="matrix(0.482275,0,0,-0.482275,491.603,907.004)">
        <path d="M704,512C704,547.333 691.5,577.5 666.5,602.5C641.5,627.5 611.333,640 576,640C540.667,640 510.5,627.5 485.5,602.5C460.5,577.5 448,547.333 448,512C448,487.333 454.333,465 467,445C479.667,425 496.667,409.333 518,398L449,169C445.667,159 447.333,149.667 454,141C460.667,132.333 469.333,128 480,128L672,128C682.667,128 691.333,132.333 698,141C704.667,149.667 706.333,159 703,169L634,398C655.333,409.333 672.333,425 685,445C697.667,465 704,487.333 704,512ZM320,768L832,768L832,960C832,1030.67 807,1091 757,1141C707,1191 646.667,1216 576,1216C505.333,1216 445,1191 395,1141C345,1091 320,1030.67 320,960L320,768ZM1152,672L1152,96C1152,69.333 1142.67,46.667 1124,28C1105.33,9.333 1082.67,0 1056,0L96,0C69.333,0 46.667,9.333 28,28C9.333,46.667 0,69.333 0,96L0,672C0,698.667 9.333,721.333 28,740C46.667,758.667 69.333,768 96,768L128,768L128,960C128,1082.67 172,1188 260,1276C348,1364 453.333,1408 576,1408C698.667,1408 804,1364 892,1276C980,1188 1024,1082.67 1024,960L1024,768L1056,768C1082.67,768 1105.33,758.667 1124,740C1142.67,721.333 1152,698.667 1152,672Z" style="fill:rgb(104,45,141);fill-rule:nonzero;"/>
    </g>
</svg>
